<svg xmlns="http://www.w3.org/2000/svg" version="1.0" viewBox="0 0 335 343"><path fill="#DB6D00" fill-opacity=".05" stroke="#DB6D00" stroke-opacity=".05" stroke-width="1.1" d="M75 .5V1h1V0h-1zm162 0V1h1V0h-1zm-167 1V2h1V1h-1zm185 4V6h1V5h-1zm-203 2V8h1V7h-1zm210 1V9h1V8h-1zm-214 1v.5h1V9h-1zm216 0v.5h1V9h-1zm-218 1v.5h1v-1h-1zm-5 3v.5h1v-1h-1zm230 0v.5h1v-1h-1zm-233 2v.5h1v-1h-1zm236 0v.5h1v-1h-1zm4 3v.5h1v-1h-1zM27.9 23.7l-1.4 1.8 1.8-1.4 1.7-1.3V22h-.8zm256.1-.4v.3l3.3 3 3.2 2.9-2.9-3.3-3-3.2h-.6zM22.4 29.2l-.7 1.1 1.1-.7 1.2-.7V28h-.9zM294 34.5v.5h1v-1h-1zm3 4v.5h1v-1h-1zm-284 3v.5h1v-1h-1zm286 0v.5h1v-1h-1zm-289 5v.5h1v-1h-1zm-1 2v.5h1v-1H9zm294 0v.5h1v-1h-1zm1 2v.5h1v-1h-1zm-297 2v.5h1v-1H7zm300 5v.5h1v-1h-1zm1 3v.5h1v-1h-1zm1 3v.5h1v-1h-1zm-307 3v.5h1v-1H2zm-1 4v.5h1v-1H1zm310 1v.5h1v-1h-1zM0 76v1.3l.7-.6.6-.7-.6-.7-.7-.6zm312 1v1.3l.7-.6.6-.7-.6-.7-.7-.6zm0 166v1.3l.7-.6.6-.7-.6-.7-.7-.6zM0 244.5v.5h1v-1H0zm311 4v.5h1v-1h-1zm-310 1v.5h1v-1H1zm1 4v.5h1v-1H2zm307 3v.5h1v-1h-1zm-1 3v.5h1v-1h-1zm-304 1v.5h1v-1H4zm303 2v.5h1v-1h-1zm-300 5v.5h1v-1H7zm297 2v.5h1v-1h-1zm-1 2v.5h1v-1h-1zm-293 2v.5h1v-1h-1zm1 2v.5h1v-1h-1zm288 3v.5h1v-1h-1zm-2 3v.5h1v-1h-1zm-280 3v.5h1v-1h-1zm277 1v.5h1v-1h-1zM21.5 290l.6 1h1l-.6-1-.6-1h-1zm264.4 4.7-3.4 3.8 3.8-3.4 3.7-3.5v-.6h-.6zM29.5 298l.6 1h1l-.6-1-.6-1h-1zm248.5 3.5v.5h1v-1h-1zm-243 1v.5h1v-1h-1zm239 2v.5h1v-1h-1zm-235 1v.5h1v-1h-1zm232 1v.5h1v-1h-1zm-227 2v.5h1v-1h-1zm224 0v.5h1v-1h-1zm-2 1v.5h1v-1h-1zm-6 3v.5h1v-1h-1zm-206 1v.5h1v-1h-1zm204 0v.5h1v-1h-1zm-199 2v.5h1v-1h-1zm194 0v.5h1v-1h-1zm-191 1v.5h1v-1h-1zm188 0v.5h1v-1h-1zm-4 1v.5h1v-1h-1zm-4 1v.5h1v-1h-1zm-168 1v.5h1v-1h-1zm163 0v.5h1v-1h-1zm-117.8 1.2 36.7.3 37.3-.3 37.3-.2h-148z"/><path fill="#DB6D00" fill-opacity=".1" stroke="#DB6D00" stroke-opacity=".1" stroke-width="1.1" d="M76 .5V1h1V0h-1zm160 0V1h1V0h-1zm-173 3V4h1V3h-1zm186 0V4h1V3h-1zm3 1V5h1V4h-1zm-195 1V6h1V5h-1zm-7 3V9h1V8h-1zm219 4v.5h1v-1h-1zm6 4v.5h1v-1h-1zm-241 2v.5h1v-1h-1zm245 1v.5h1v-1h-1zM24.9 26.7l-1.4 1.8 1.8-1.4 1.7-1.3V25h-.8zM293 33.5v.5h1v-1h-1zm-275 1v.5h1v-1h-1zm278 3v.5h1v-1h-1zm-281 1v.5h1v-1h-1zm283 2v.5h1v-1h-1zm2 3v.5h1v-1h-1zm-292 7v.5h1v-1H8zm298 5v.5h1v-1h-1zm-301 2v.5h1v-1H5zm-2 6v.5h1v-1H3zm307 4v.5h1v-1h-1zm1 5v.5h1v-1h-1zm-311 5v.5h1v-1H0zm312 1v.5h1v-1h-1zm0 163v.5h1v-1h-1zM0 243v1.3l.7-.6.6-.7-.6-.7-.7-.6zm311 4.5v.5h1v-1h-1zm-1 5v.5h1v-1h-1zm-307 4v.5h1v-1H3zm2 6v.5h1v-1H5zm301 2v.5h1v-1h-1zm-298 5v.5h1v-1H8zm1 2v.5h1v-1H9zm291 5v.5h1v-1h-1zm-287 2v.5h1v-1h-1zm285 1v.5h1v-1h-1zm-283 2v.5h1v-1h-1zm281 1v.5h1v-1h-1zm-278 3v.5h1v-1h-1zm275 1v.5h1v-1h-1zm-270 4.9v.4l1.8 1.3 1.7 1.4-1.4-1.8-1.3-1.7H23zm4.5 4.6.6 1h1l-.6-1-.6-1h-1zm6.5 5.5v.5h1v-1h-1zm4 3v.5h1v-1h-1zm3 2v.5h1v-1h-1zm5 3v.5h1v-1h-1zm2 1v.5h1v-1h-1zm216 0v.5h1v-1h-1zm-2 1v.5h1v-1h-1zm-210 1v.5h1v-1h-1zm203 2v.5h1v-1h-1zm-6 2v.5h1v-1h-1zm-183 1v.5h1v-1h-1zm4 1v.5h1v-1h-1zm5 1v.5h1v-1h-1z"/><path fill="#DB6D00" fill-opacity=".15" stroke="#DB6D00" stroke-opacity=".15" stroke-width="1.1" d="M77 .5V1h1V0h-1zm158 0V1h1V0h-1zm6 1V2h1V1h-1zm4 1V3h1V2h-1zm-185 2V5h1V4h-1zm197 2V7h1V6h-1zm15 8v.5h1v-1h-1zm8 6v.5h1v-1h-1zm12 12v.5h1v-1h-1zm9 13v.5h1v-1h-1zm3 6v.5h1v-1h-1zm1 2v.5h1v-1h-1zm2 5v.5h1v-1h-1zm-303 2v.5h1v-1H4zm304 1v.5h1v-1h-1zm1 3v.5h1v-1h-1zm1 4v.5h1v-1h-1zm-309 3v.5h1v-1H1zm310 2v.5h1v-1h-1zm1 6.5v1.3l.7-.6.6-.7-.6-.7-.7-.6zm0 160v1.3l.7-.6.6-.7-.6-.7-.7-.6zm-1 6.5v.5h1v-1h-1zm-310 2v.5h1v-1H1zm309 3v.5h1v-1h-1zm-1 4v.5h1v-1h-1zm-1 3v.5h1v-1h-1zm-304 1v.5h1v-1H4zm303 2v.5h1v-1h-1zm-2 5v.5h1v-1h-1zm-1 2v.5h1v-1h-1zm-3 6v.5h1v-1h-1zm-275 20v.5h1v-1h-1zm253 6v.5h1v-1h-1zm-4 3v.5h1v-1h-1zm-6 4v.5h1v-1h-1zm-219 4v.5h1v-1h-1zm7 3v.5h1v-1h-1zm195 1v.5h1v-1h-1zm-189 1v.5h1v-1h-1zm13 3v.5h1v-1h-1zm160 0v.5h1v-1h-1z"/><path fill="#DB6D00" fill-opacity=".25" stroke="#DB6D00" stroke-opacity=".25" stroke-width="1.1" d="M78 .5V1h1V0h-1zm162 1V2h1V1h-1zm8 2V4h1V3h-1zm17 7v.5h1v-1h-1zm-220 1v.5h1v-1h-1zm-5 3v.5h1v-1h-1zm236 3v.5h1v-1h-1zm14 13v.5h1v-1h-1zm7 9v.5h1v-1h-1zm-286 6v.5h1v-1h-1zm-4 8v.5h1v-1H7zm299 3v.5h1v-1h-1zm-303 8v.5h1v-1H3zm306 1v.5h1v-1h-1zm1 4v.5h1v-1h-1zm-309 3v.5h1v-1H1zm310 2v.5h1v-1h-1zm-311 5v.5h1v-1H0zM312 83v1.3l.7-.6.6-.7-.6-.7-.7-.6zm0 154v1.3l.7-.6.6-.7-.6-.7-.7-.6zM0 240.5v.5h1v-1H0zm311 5v.5h1v-1h-1zm-310 2v.5h1v-1H1zm309 3v.5h1v-1h-1zm-1 4v.5h1v-1h-1zm-3 9v.5h1v-1h-1zm-7 14v.5h1v-1h-1zm-285 2v.5h1v-1h-1zm283 1v.5h1v-1h-1zm-281 2v.5h1v-1h-1zm265 16v.5h1v-1h-1zm-248 2v.5h1v-1h-1zm243 2v.5h1v-1h-1zm-239 1v.5h1v-1h-1zm6 4v.5h1v-1h-1zm216 5v.5h1v-1h-1zm-204 1v.5h1v-1h-1zm12 4v.5h1v-1h-1zm4 1v.5h1v-1h-1zm163 1v.5h1v-1h-1z"/><path fill="#DB6D00" fill-opacity=".35" stroke="#DB6D00" stroke-opacity=".35" stroke-width="1.1" d="M79 .5V1h1V0h-1zm165 2V3h1V2h-1zm-183 2V5h1V4h-1zm-3 1V6h1V5h-1zm-7 3V9h1V8h-1zm-4 2v.5h1v-1h-1zm226 5v.5h1v-1h-1zm-237 2v.5h1v-1h-1zm-5 4v.5h1v-1h-1zm252 2v.5h1v-1h-1zm5 5v.5h1v-1h-1zm-267 3v.5h1v-1h-1zm-4 5v.5h1v-1h-1zm284 10v.5h1v-1h-1zm-291 1v.5h1v-1h-1zm-1 2v.5h1v-1H9zm295 3v.5h1v-1h-1zm5 14v.5h1v-1h-1zm-307 2v.5h1v-1H2zm308 2v.5h1v-1h-1zm1 5v.5h1v-1h-1zm-311 5v.5h1v-1H0zm312.4 30v22l.3-11.3.4-11.3-.4-10.7-.3-10.7zm.1 82.5v38.5l.2-19.2.3-19.3-.3-19.2-.2-19.3zM0 239.5v.5h1v-1H0zm311 5v.5h1v-1h-1zm-310 2v.5h1v-1H1zm309 3v.5h1v-1h-1zm-308 2v.5h1v-1H2zm307 2v.5h1v-1h-1zm-301 15v.5h1v-1H8zm2 4v.5h1v-1h-1zm10 15v.5h1v-1h-1zm268.4 3.7-.7 1.1 1.1-.7 1.2-.7v-.9h-.9zM32 299.5v.5h1v-1h-1zm241 5v.5h1v-1h-1zm-10 6v.5h1v-1h-1zm-2 1v.5h1v-1h-1zm-208 1v.5h1v-1h-1zm201 2v.5h1v-1h-1zm-3 1v.5h1v-1h-1zm-187 1v.5h1v-1h-1zm8 2v.5h1v-1h-1zm168 0v.5h1v-1h-1zm-7 1v.5h1v-1h-1z"/><path fill="#DB6D00" fill-opacity=".45" stroke="#DB6D00" stroke-opacity=".45" stroke-width="1.1" d="M80 .5V1h1V0h-1zm-12 2V3h1V2h-1zm188 4V7h1V6h-1zm12 6v.5h1v-1h-1zm-229 3v.5h1v-1h-1zm-9 7v.5h1v-1h-1zm-8 8v.5h1v-1h-1zm-16 26v.5h1v-1H6zm300 1v.5h1v-1h-1zm2 6v.5h1v-1h-1zm-305 2v.5h1v-1H3zm-1 4v.5h1v-1H2zm309 8v.5h1v-1h-1zm-311 5v.5h1v-1H0zm0 155v.5h1v-1H0zm311 5v.5h1v-1h-1zm-310 3v.5h1v-1H1zm1 5v.5h1v-1H2zm306 6v.5h1v-1h-1zm-2 6v.5h1v-1h-1zm-300 1v.5h1v-1H6zm7 14v.5h1v-1h-1zm2 3v.5h1v-1h-1zm278 5v.5h1v-1h-1zm-244 25v.5h1v-1h-1zm190 8v.5h1v-1h-1z"/><path fill="#DB6D00" fill-opacity=".55" stroke="#DB6D00" stroke-opacity=".55" stroke-width="1.1" d="M81 .5V1h1V0h-1zm-7 1V2h1V1h-1zm169 1V3h1V2h-1zm-178 1V4h1V3h-1zm182 0V4h1V3h-1zm3 1V5h1V4h-1zm3 1V6h1V5h-1zm5 2V8h1V7h-1zm-214 5v.5h1v-1h-1zm227 2v.5h1v-1h-1zM25.9 26.7l-2.4 2.8 2.8-2.4 2.7-2.4V24h-.7zM292 33.5v.5h1v-1h-1zm3 4v.5h1v-1h-1zm4 6v.5h1v-1h-1zM7 54.5v.5h1v-1H7zm298 1v.5h1v-1h-1zm4 12v.5h1v-1h-1zm-307 3v.5h1v-1H2zm-1 5v.5h1v-1H1zm310 3v.5h1v-1h-1zM0 85v1.3l.7-.6.6-.7-.6-.7-.7-.6zm0 150v1.3l.7-.6.6-.7-.6-.7-.7-.6zm311 6.5v.5h1v-1h-1zm-310 3v.5h1v-1H1zm308 8v.5h1v-1h-1zm-305 5v.5h1v-1H4zm301 7v.5h1v-1h-1zm-298 1v.5h1v-1H7zm5 10v.5h1v-1h-1zm287 1v.5h1v-1h-1zm-4 6v.5h1v-1h-1zm-277 2v.5h1v-1h-1zm274 2v.5h1v-1h-1zm-269 4v.5h1v-1h-1zm6 6v.5h1v-1h-1zm249 4v.5h1v-1h-1zm-243 1v.5h1v-1h-1zm239 2v.5h1v-1h-1zm-218 10v.5h1v-1h-1zm175 6v.5h1v-1h-1z"/><path fill="#DB6D00" fill-opacity=".6" stroke="#DB6D00" stroke-opacity=".6" stroke-width="1.1" d="M82 .5V1h1V0h-1zm148 0V1h1V0h-1zm-161 2V3h1V2h-1zm-10 3V6h1V5h-1zm201 3V9h1V8h-1zm6 3v.5h1v-1h-1zm-247 23v.5h1v-1h-1zm-3 4v.5h1v-1h-1zm281 2v.5h1v-1h-1zm-283 1v.5h1v-1h-1zm286 4v.5h1v-1h-1zm-289 1v.5h1v-1h-1zm-1 2v.5h1v-1h-1zm-1 2v.5h1v-1H9zm-1 2v.5h1v-1H8zm296 1v.5h1v-1h-1zM3 66.5v.5h1v-1H3zm307 6v.5h1v-1h-1zm1 7v.5h1v-1h-1zM.5 160v74.5l.2-37.3L1 160l-.3-37.3-.2-37.2zM311 240.5v.5h1v-1h-1zm-1 7v.5h1v-1h-1zm-308 2v.5h1v-1H2zm1 4v.5h1v-1H3zm5 14v.5h1v-1H8zm292 7v.5h1v-1h-1zm-3 5v.5h1v-1h-1zm-271 14 2.3 2.5h1l-2.3-2.5-2.3-2.5h-1zm245 12v.5h1v-1h-1zm-227 2v.5h1v-1h-1zm222 1v.5h1v-1h-1zm-8 4v.5h1v-1h-1zm-5 2v.5h1v-1h-1zm-3 1v.5h1v-1h-1zm-3 1v.5h1v-1h-1zm-4 1v.5h1v-1h-1zm-169 1v.5h1v-1h-1zm164 0v.5h1v-1h-1zm-157 1v.5h1v-1h-1z"/><path fill="#DB6D00" fill-opacity=".65" stroke="#DB6D00" stroke-opacity=".65" stroke-width="1.1" d="M83 .5V1h1V0h-1zm146 0V1h1V0h-1zm8 1V2h1V1h-1zm-175 3V5h1V4h-1zm-8 3V8h1V7h-1zm208 2v.5h1V9h-1zm2 1v.5h1v-1h-1zm-223 4v.5h1v-1h-1zm-3 2v.5h1v-1h-1zm-4 3v.5h1v-1h-1zm245 1v.5h1v-1h-1zm12 12v.5h1v-1h-1zm12 19v.5h1v-1h-1zm-297 6v.5h1v-1H6zm300 1v.5h1v-1h-1zm1 3v.5h1v-1h-1zm1 3v.5h1v-1h-1zM1 76.5v.5h1v-1H1zm0 167v.5h1v-1H1zm307 12v.5h1v-1h-1zm-1 3v.5h1v-1h-1zm-1 3v.5h1v-1h-1zm-300 1v.5h1v-1H6zm298 4v.5h1v-1h-1zm-295 3v.5h1v-1H9zm1 2v.5h1v-1h-1zm1 2v.5h1v-1h-1zm3 5v.5h1v-1h-1zm2 3v.5h1v-1h-1zm3 4v.5h1v-1h-1zm272 2v.5h1v-1h-1zm-12 12v.5h1v-1h-1zm-220 15v.5h1v-1h-1zm6 2v.5h1v-1h-1zm4 1v.5h1v-1h-1zm13 2v.5h1v-1h-1zm148 0v.5h1v-1h-1z"/><path fill="#DB6D00" fill-opacity=".75" stroke="#DB6D00" stroke-opacity=".75" stroke-width="1.1" d="M84 .5V1h1V0h-1zm-14 2V3h1V2h-1zm-4 1V4h1V3h-1zm180 0V4h1V3h-1zm-189 3V7h1V6h-1zm-7 3v.5h1V9h-1zm-2 1v.5h1v-1h-1zm221 3v.5h1v-1h-1zm3 2v.5h1v-1h-1zm-239 5v.5h1v-1h-1zm263 19v.5h1v-1h-1zm-281 1v.5h1v-1h-1zm283 2v.5h1v-1h-1zm-286 3v.5h1v-1h-1zm-5 10v.5h1v-1H7zm-4 12v.5h1v-1H3zm-1 5v.5h1v-1H2zm308 2v.5h1v-1h-1zm-309 4v.5h1v-1H1zm310 3v.5h1v-1h-1zm0 157v.5h1v-1h-1zm-310 3v.5h1v-1H1zm309 4v.5h1v-1h-1zm-308 2v.5h1v-1H2zm1 5v.5h1v-1H3zm4 12v.5h1v-1H7zm6 12v.5h1v-1h-1zm285 1v.5h1v-1h-1zm-281 5v.5h1v-1h-1zm3 4v.5h1v-1h-1zm270 2v.5h1v-1h-1zm-10 10v.5h1v-1h-1zm-11 8v.5h1v-1h-1zm-217 5v.5h1v-1h-1zm190 6v.5h1v-1h-1zm-167 1v.5h1v-1h-1zm8 1v.5h1v-1h-1z"/><path fill="#DB6D00" fill-opacity=".8" stroke="#DB6D00" stroke-opacity=".8" stroke-width="1.1" d="M85 .5V1h1V0h-1zm141.3.2.7.6.7-.6.6-.7h-2.6zM76 1.5V2h1V1h-1zm160 0V2h1V1h-1zm5 1V3h1V2h-1zm8 2V5h1V4h-1zm-189 1V6h1V5h-1zm192 0V6h1V5h-1zm15 7v.5h1v-1h-1zm-224 1v.5h1v-1h-1zm-6 4v.5h1v-1h-1zm239 1v.5h1v-1h-1zm-244 3v.5h1v-1h-1zm249 1v.5h1v-1h-1zm7.5 7.5.6 1h1l-.6-1-.6-1h-1zM21.4 32.2l-.7 1.1 1.1-.7 1.2-.7V31h-.9zM18 36.5v.5h1v-1h-1zm-7 11v.5h1v-1h-1zm-1 2v.5h1v-1h-1zm-1 2v.5h1v-1H9zm-1 2v.5h1v-1H8zm297 3v.5h1v-1h-1zm-299 2v.5h1v-1H6zm-1 3v.5h1v-1H5zm-1 3v.5h1v-1H4zm304 1v.5h1v-1h-1zm-305 3v.5h1v-1H3zm306 1v.5h1v-1h-1zm-307 4v.5h1v-1H2zM1 80v1.3l.7-.6.6-.7-.6-.7-.7-.6zm310 2.5v.5h1v-1h-1zm0 155v.5h1v-1h-1zM1 240v1.3l.7-.6.6-.7-.6-.7-.7-.6zm1 6.5v.5h1v-1H2zm307 4v.5h1v-1h-1zm-306 1v.5h1v-1H3zm305 3v.5h1v-1h-1zm-304 1v.5h1v-1H4zm1 3v.5h1v-1H5zm1 3v.5h1v-1H6zm299 2v.5h1v-1h-1zm-297 3v.5h1v-1H8zm1 2v.5h1v-1H9zm3 6v.5h1v-1h-1zm3 5v.5h1v-1h-1zm281 1v.5h1v-1h-1zm-275 7v.5h1v-1h-1zm268 2v.5h1v-1h-1zm-8 8v.5h1v-1h-1zm-248 2v.5h1v-1h-1zm239 5v.5h1v-1h-1zm-224 5v.5h1v-1h-1zm2 1v.5h1v-1h-1zm7 3v.5h1v-1h-1zm198 0v.5h1v-1h-1zm-9 3v.5h1v-1h-1zm-176 1v.5h1v-1h-1zm14 2v.5h1v-1h-1zm144 0v.5h1v-1h-1z"/><path fill="#DB6D00" fill-opacity=".85" stroke="#DB6D00" stroke-opacity=".85" stroke-width="1.1" d="m86.3.7.7.6.7-.6.6-.7h-2.6zM225 .5V1h1V0h-1zm-154 2V3h1V2h-1zm174 1V4h1V3h-1zm-182 1V5h1V4h-1zm-8 3V8h1V7h-1zm202 0V8h1V7h-1zm-212 5v.5h1v-1h-1zm-5 3v.5h1v-1h-1zm-4 3v.5h1v-1h-1zm-5 4v.5h1v-1h-1zm251 .8v.3l3.3 3 3.2 2.9-2.9-3.3-3-3.2h-.6zM23 30.5v.5h1v-1h-1zm270 5v.5h1v-1h-1zm-277 4v.5h1v-1h-1zm-2 3v.5h1v-1h-1zm285 2v.5h1v-1h-1zM7 56.5v.5h1v-1H7zm299 3v.5h1v-1h-1zm1 3v.5h1v-1h-1zM2 74.5v.5h1v-1H2zm308 1v.5h1v-1h-1zM1 82v1.3l.7-.6.6-.7-.6-.7-.7-.6zm310 1.5v.5h1v-1h-1zm0 153v.5h1v-1h-1zm-310 2v.5h1v-1H1zm309 6v.5h1v-1h-1zm-308 1v.5h1v-1H2zm305 12v.5h1v-1h-1zm-1 3v.5h1v-1h-1zm-296 10v.5h1v-1h-1zm1 2v.5h1v-1h-1zm288 3v.5h1v-1h-1zm-285 2v.5h1v-1h-1zm4 6v.5h1v-1h-1zm275 1v.5h1v-1h-1zm-271 4v.5h1v-1h-1zm265.4 2.7-.7 1.1 1.1-.7 1.2-.7v-.9h-.9zm-5 5-.7 1.1 1.1-.7 1.2-.7v-.9h-.9zM32 298.5v.5h1v-1h-1zm244 3v.5h1v-1h-1zm-239 1v.5h1v-1h-1zm3 2v.5h1v-1h-1zm3 2v.5h1v-1h-1zm224 1v.5h1v-1h-1zm-207 7v.5h1v-1h-1zm192 0v.5h1v-1h-1zm-3 1v.5h1v-1h-1zm-183 1v.5h1v-1h-1zm175 1v.5h1v-1h-1zm-165 1v.5h1v-1h-1zm160 0v.5h1v-1h-1zm-151 1v.5h1v-1h-1zm142 0v.5h1v-1h-1z"/><path fill="#DB6D00" fill-opacity=".9" stroke="#DB6D00" stroke-opacity=".9" stroke-width="1.1" d="m122.3.7 34.8.3 34.2-.3 34.2-.2h-138zm-45 1 .7.6.7-.6.6-.7h-2.6zm157 0 .7.6.7-.6.6-.7h-2.6zM72 2.5V3h1V2h-1zm168 0V3h1V2h-1zm-173 1V4h1V3h-1zm177 0V4h1V3h-1zm-186 3V7h1V6h-1zm196 0V7h1V6h-1zm-201 2V9h1V8h-1zm206 0V9h1V8h-1zm-208 1v.5h1V9h-1zm210 0v.5h1V9h-1zm-212 1v.5h1v-1h-1zm214 0v.5h1v-1h-1zm-216 1v.5h1v-1h-1zm218 0v.5h1v-1h-1zm-223 3v.5h1v-1h-1zm228 0v.5h1v-1h-1zm-231 2v.5h1v-1h-1zm234 0v.5h1v-1h-1zm-238 3v.5h1v-1h-1zm242 0v.5h1v-1h-1zM26.9 26.7l-3.4 3.8 3.8-3.4 3.7-3.5V23h-.6zM292 34.5v.5h1v-1h-1zm-273 1v.5h1v-1h-1zm276 3v.5h1v-1h-1zm2 3v.5h1v-1h-1zm-284 3v.5h1v-1h-1zm287 2v.5h1v-1h-1zm1 2v.5h1v-1h-1zm1 2v.5h1v-1h-1zm1 2v.5h1v-1h-1zm-295 2v.5h1v-1H8zm296 0v.5h1v-1h-1zm1 3v.5h1v-1h-1zm-299 2v.5h1v-1H6zm-1 3v.5h1v-1H5zm-1 3v.5h1v-1H4zm304 1v.5h1v-1h-1zM3 70v1.3l.7-.6.6-.7-.6-.7-.7-.6zm306 .5v.5h1v-1h-1zm-307 5v.5h1v-1H2zm-1 8v.5h1v-1H1zM311 85v1.3l.7-.6.6-.7-.6-.7-.7-.6zm0 150v1.3l.7-.6.6-.7-.6-.7-.7-.6zM1 237v1.3l.7-.6.6-.7-.6-.7-.7-.6zm1 7.5v.5h1v-1H2zm307 5v.5h1v-1h-1zm-306 1v.5h1v-1H3zm1 4v.5h1v-1H4zm1 3v.5h1v-1H5zm1 3v.5h1v-1H6zm1 3v.5h1v-1H7zm297 2v.5h1v-1h-1zm-1 2v.5h1v-1h-1zm-1 2v.5h1v-1h-1zm-1 2v.5h1v-1h-1zm-1 2v.5h1v-1h-1zm-287 2v.5h1v-1h-1zm284 3v.5h1v-1h-1zm-281 2v.5h1v-1h-1zm279 1v.5h1v-1h-1zm-276 3v.5h1v-1h-1zm273 1v.5h1v-1h-1zm-269 3.9v.4l1.8 1.3 1.7 1.4-1.4-1.8-1.3-1.7H23zm261.9 4.3-1.4 1.8 1.8-1.4 1.7-1.3v-.8h-.8zM29.5 296l1.8 2h1l-1.8-2-1.8-2h-1zm247.5 4.5v.5h1v-1h-1zm-241 1v.5h1v-1h-1zm237 2v.5h1v-1h-1zm-3 2v.5h1v-1h-1zm-225 2v.5h1v-1h-1zm220 1v.5h1v-1h-1zm-4 2v.5h1v-1h-1zm-4 2v.5h1v-1h-1zm-194 3v.5h1v-1h-1zm182 1v.5h1v-1h-1zm-174 1v.5h1v-1h-1zm15.3 2.2.7.6.7-.6.6-.7h-2.6zm139 0 .7.6.7-.6.6-.7h-2.6z"/><path fill="#DB6D00" fill-opacity=".7" stroke="#DB6D00" stroke-opacity=".7" stroke-width="1.1" d="M228 .5V1h1V0h-1zm-153 1V2h1V1h-1zm167 1V3h1V2h-1zm13 4V7h1V6h-1zm-203 2V9h1V8h-1zm-6 3v.5h1v-1h-1zm229 6v.5h1v-1h-1zm5 4v.5h1v-1h-1zm10 10v.5h1v-1h-1zm-270 2v.5h1v-1h-1zm274 3v.5h1v-1h-1zm-277 1v.5h1v-1h-1zm-4 6v.5h1v-1h-1zm288 4v.5h1v-1h-1zm1 2v.5h1v-1h-1zM5 60.5v.5h1v-1H5zm-1 3v.5h1v-1H4zm305 5v.5h1v-1h-1zm-307 3v.5h1v-1H2zm308 2v.5h1v-1h-1zm-309 4v.5h1v-1H1zm310 3v.5h1v-1h-1zm0 159v.5h1v-1h-1zm-310 3v.5h1v-1H1zm309 4v.5h1v-1h-1zm-308 2v.5h1v-1H2zm307 3v.5h1v-1h-1zm-305 5v.5h1v-1H4zm1 3v.5h1v-1H5zm298 9v.5h1v-1h-1zm-1 2v.5h1v-1h-1zm-1 2v.5h1v-1h-1zm-7 11v.5h1v-1h-1zm-260 17v.5h1v-1h-1zm241 2v.5h1v-1h-1zm-237 1v.5h1v-1h-1zm3 2v.5h1v-1h-1zm5 3v.5h1v-1h-1zm218 1v.5h1v-1h-1zm-2 1v.5h1v-1h-1zm-2 1v.5h1v-1h-1zm-206 1v.5h1v-1h-1zm8 3v.5h1v-1h-1zm175 3v.5h1v-1h-1zm-8 1v.5h1v-1h-1z"/><path fill="#DB6D00" fill-opacity=".5" stroke="#DB6D00" stroke-opacity=".5" stroke-width="1.1" d="M231 .5V1h1V0h-1zm7 1V2h1V1h-1zm-182 5V7h1V6h-1zm218 10v.5h1v-1h-1zm-239 2v.5h1v-1h-1zm243 1v.5h1v-1h-1zm-249 4v.5h1v-1h-1zm-6 6v.5h1v-1h-1zm-5 6v.5h1v-1h-1zm-6 9v.5h1v-1h-1zm-7 15v.5h1v-1H5zm302 1v.5h1v-1h-1zm-303 2v.5h1v-1H4zm306 9v.5h1v-1h-1zM0 83.5v.5h1v-1H0zm0 153v.5h1v-1H0zm310 12v.5h1v-1h-1zm-307 6v.5h1v-1H3zm304 5v.5h1v-1h-1zm-302 1v.5h1v-1H5zm17 29v.5h1v-1h-1zm8 8v.5h1v-1h-1zm9 7v.5h1v-1h-1zm3 2v.5h1v-1h-1zm226 1v.5h1v-1h-1zm-12 6v.5h1v-1h-1zm-188 4v.5h1v-1h-1zm5 1v.5h1v-1h-1zm7 1v.5h1v-1h-1zm152 0v.5h1v-1h-1z"/><path fill="#DB6D00" fill-opacity=".4" stroke="#DB6D00" stroke-opacity=".4" stroke-width="1.1" d="M232 .5V1h1V0h-1zm-159 1V2h1V1h-1zm166 0V2h1V1h-1zm-190 8v.5h1V9h-1zm-7 4v.5h1v-1h-1zm235 5v.5h1v-1h-1zm8.5 7.5 1.8 2h1l-1.8-2-1.8-2h-1zm7.5 8.5v.5h1v-1h-1zm3 4v.5h1v-1h-1zm-281 1v.5h1v-1h-1zm283 2v.5h1v-1h-1zm-285 1v.5h1v-1h-1zm289 6v.5h1v-1h-1zm1 2v.5h1v-1h-1zM1 74.5v.5h1v-1H1zm310 2v.5h1v-1h-1zm-311 5v.5h1v-1H0zm0 157v.5h1v-1H0zm311 5v.5h1v-1h-1zm-7 24v.5h1v-1h-1zm-1 2v.5h1v-1h-1zm-294 1v.5h1v-1H9zm293 1v.5h1v-1h-1zm-1 2v.5h1v-1h-1zm-3 5v.5h1v-1h-1zm-2 3v.5h1v-1h-1zm-279 2v.5h1v-1h-1zm4 5v.5h1v-1h-1zm263.9 6.2-2.4 2.8 2.8-2.4 2.7-2.4v-.7h-.7zM31 298.5v.5h1v-1h-1zm246 3v.5h1v-1h-1zm-241 1v.5h1v-1h-1zm11 7v.5h1v-1h-1zm4 2v.5h1v-1h-1zm7 3v.5h1v-1h-1zm3 1v.5h1v-1h-1zm183 2v.5h1v-1h-1zm-165 2v.5h1v-1h-1z"/><path fill="#DB6D00" fill-opacity=".3" stroke="#DB6D00" stroke-opacity=".3" stroke-width="1.1" d="M233 .5V1h1V0h-1zm-161 1V2h1V1h-1zm-8 2V4h1V3h-1zm187 1V5h1V4h-1zm3 1V6h1V5h-1zm-201 2V8h1V7h-1zm208 1V9h1V8h-1zm2 1v.5h1V9h-1zm7 4v.5h1v-1h-1zm-238 7v.5h1v-1h-1zm250 2v.5h1v-1h-1zm7 7v.5h1v-1h-1zm-269 3v.5h1v-1h-1zm274 3v.5h1v-1h-1zm6 9v.5h1v-1h-1zm-292 7v.5h1v-1H8zm297 3v.5h1v-1h-1zm-300 4v.5h1v-1H5zm302 1v.5h1v-1h-1zm-303 2v.5h1v-1H4zm304 1v.5h1v-1h-1zM1 73.5v.5h1v-1H1zm311.2 13v3l.5-1.8.5-1.7-.5-1.3-.5-1.2zm0 147v3l.5-1.8.5-1.7-.5-1.3-.5-1.2zM3 255.5v.5h1v-1H3zm305 2v.5h1v-1h-1zm-304 1v.5h1v-1H4zm303 2v.5h1v-1h-1zm-302 1v.5h1v-1H5zm300 4v.5h1v-1h-1zm-298 1v.5h1v-1H7zm4 8v.5h1v-1h-1zm289 1v.5h1v-1h-1zm-6 9v.5h1v-1h-1zm-4 5v.5h1v-1h-1zm-8 8v.5h1v-1h-1zm-242 8v.5h1v-1h-1zm230 1v.5h1v-1h-1zm-225 2v.5h1v-1h-1zm220 1v.5h1v-1h-1zm-17 7v.5h1v-1h-1zm-170 3v.5h1v-1h-1z"/><path fill="#DB6D00" fill-opacity=".2" stroke="#DB6D00" stroke-opacity=".2" stroke-width="1.1" d="M234 .5V1h1V0h-1zm-163 1V2h1V1h-1zm-4 1V3h1V2h-1zm-12 4V7h1V6h-1zm204 1V8h1V7h-1zm8 4v.5h1v-1h-1zm-224 1v.5h1v-1h-1zm-6 4v.5h1v-1h-1zm-4 3v.5h1v-1h-1zm248 2v.5h1v-1h-1zm10 10v.5h1v-1h-1zm-272 2v.5h1v-1h-1zm276 3v.5h1v-1h-1zm-279 1v.5h1v-1h-1zm-2 3v.5h1v-1h-1zm285 2v.5h1v-1h-1zm-287 1v.5h1v-1h-1zm290 4v.5h1v-1h-1zm1 2v.5h1v-1h-1zm-297 6v.5h1v-1H6zm-4 12v.5h1v-1H2zm-2 11v.5h1v-1H0zm312 3v.5h1v-1h-1zm0 157v.5h1v-1h-1zm-312 3v.5h1v-1H0zm2 11v.5h1v-1H2zm4 12v.5h1v-1H6zm297 6v.5h1v-1h-1zm-1 2v.5h1v-1h-1zm-290 4v.5h1v-1h-1zm283 7v.5h1v-1h-1zm-276 3v.5h1v-1h-1zm272.4 1.7-.7 1.1 1.1-.7 1.2-.7v-.9h-.9zM280 299.5v.5h1v-1h-1zm-8 6v.5h1v-1h-1zm-5 3v.5h1v-1h-1zm-10 5v.5h1v-1h-1zm-197 2v.5h1v-1h-1zm185 2v.5h1v-1h-1zm-4 1v.5h1v-1h-1zm-164 1v.5h1v-1h-1zm158 0v.5h1v-1h-1z"/><path fill="#DB6D00" fill-opacity=".95" stroke="#DB6D00" stroke-opacity=".95" stroke-width="1.1" d="m70.9 3-8.6 1.8-8.8 4.1-8.7 4.1-6.1 4.4-6.2 4.4-7.1 7.5-7.2 7.5-4 6.8-4.1 6.9-2.6 6.9-2.6 6.9-1.3 6.6-1.4 6.6-.6 6-.6 6L2.5 85 4 80.5 5.2 72l1.2-8.5.6-.5.5-.5 1.3-2.9 1.3-2.9-.5-.5-.5-.5 1.9-2.5 2-2.5v-3l1.4-1.6 1.4-1.6.4-1.3.3-1.3 3-3.6 3-3.6 4.5-5 4.5-5 5.6-4.2 5.5-4.3 6.7-3.6L55.9 9h2.6L61 7.7l2.5-1.3L73 4.6l9.5-1.8 3-.8 3-.8H84l-4.5-.1zm155.6-1 3 .8 9.3 1.7 9.3 1.7 5.2 2 5.2 2 6 3.1 6 3.1 6.8 5.4 6.8 5.3 5.5 6.7 5.4 6.6 3.7 7.1 3.6 7 .8.3.9.4-.5.8-.5.9 1.4 3.8 1.5 3.8 1.5 7.2 1.6 7.2.1 3.3v3.3l1.1-2.5 1-2.5-1.2-6.8-1.2-6.7-.9.6-.9.5.2-2.9.2-2.9-2.8-6.7-2.8-6.6h-1.9l.5-.9.6-.8-4.1-6.4-4.1-6.3-6.2-6.4-6.1-6.4-6.2-4.4-6.1-4.4-8.5-4-8.6-4-9.3-2-9.3-2-4.5.1-4.5.1zM309 71.5v.5h-1v-1h1zm2.1 16.1.1 1.9.5-1.3.5-1.3-.6-.6-.6-.6zm.1 144.4v2.5l.5-1.3.5-1.2-.5-1.3-.5-1.2zM1.1 232l-.1 1.5 1.5 9.5 1.4 9.5 1.7 5 1.7 5 .8.9.9 1 .5-.5.5-.5-1.2-3.2-1.2-3.2H6v-5.5L4.5 244 3 236.5l-.9-3-.9-3zm308 5.6-.1 3-1.9 8.5-1.9 8.4-1.1 2.8-1.1 2.8v.9h2l1.1-2.8 1.1-2.7-.1-3.5v-3.5l.8 1.3.8 1.3 1.2-7.3 1.3-7.3-1.1-2.5-1-2.5zm.9 5.9v.5h-1v-1h1zM11.5 271.7l3.7 6.8 3.8 5 3.8 5 2.9 3 3 3 3.5 3.2 3.6 3.3h2l.6 1.5.5 1.5H42v2l2.5.6 2.5.6v1.9l1-.6 1-.6v2.2l1-.6 1-.6v2.2l.9-.5.9-.6.4 1.2.4 1.2.7-1.2.8-1.1-5.4-2.6-5.4-2.5-6.4-4.9-6.4-4.8-4.5-5-4.5-5-3-3.6-3-3.6-.3-1.3-.4-1.3-1.4-1.6-1.4-1.6v-2.9l-1.6-2.2-1.5-2.2H7.8zm287.6.1-3.4 6.7-5.4 6.7-5.3 6.8-6.8 5.4-6.7 5.4-6.5 3.5-6.5 3.6-5.5 2-5.5 1.9-7.2 1.6-7.2 1.6-3.3.2-3.3.1 4.5.6 4.5.6.6-.9.7-.9 2.1.6 2.1.5v-2l2 .5 2 .5v-1.6l4-.7 4-.7.5.2.6.1 1.6-1.6 1.5-1.6 1.2.4 1.1.4 1.3-1.4 1.4-1.3.8.5.8.5.6-1.5.5-1.5h4.1v-1.7l2.5-1.1 2.6-1.2 1.2-1 1.2-1 7.2-6.5 7.1-6.6 4.6-6.8 4.6-6.7V271h1.7l1.1-2.5 1.2-2.6v-.9h-1.5zM55.4 312.2l-.7 1.1 1.6-.6 1.7-.6v1.8l1.5-.5 1.5-.6v2.2l.8-.1.7-.1 2.8.1 2.8.1-.6 1-.7 1.1 2.6-.7 2.6-.6v2l2.1-.5 2.1-.6.7.9.6.9 4-.6 4-.6-3.5-.2-3.5-.2-8-1.8-8-1.8-2.2-1.1-2.2-1.2h-2zm32.9 7.5.7.6.7-.6.6-.7h-2.6zm134.5 0 1.3.5.6-.6.6-.6-1.9.1-1.9.1z"/><g fill="#DB6D00" stroke="#DB6D00" stroke-width="1.1"><path d="m85.5 2-3 .8L73 4.6l-9.5 1.8L61 7.7 58.5 9h-2.6l-6.6 3.6-6.7 3.6-5.5 4.3-5.6 4.2-4.5 5-4.5 5-3 3.6-3 3.6-.3 1.3-.4 1.3-1.4 1.6-1.4 1.6v2.9L11.3 53l-1.8 2.5v1l-.1 1-.8 2.7-.8 2.8H6.3l-.7 6.4-.6 6.3-2 7.4-2 7.4v139l1 3.5 1.1 3.5 1.4 7.5 1.5 7.5v5.5h1.6l1.2 3.2 1.2 3.3-.9.3-.9.3 2.4 2.4 2.4 2.4v3.4l1.4 1.6 1.4 1.6.4 1.3.3 1.3 3 3.6 3 3.6 5.7 6.2 5.8 6.2-.8.8-.7.8 1.3-.7 1.3-.8 1.4 1.2 1.5 1.2-.7 1.1-.6 1 1.2-.7 1.2-.8 1.4 1.2 1.5 1.2-.7 1.1-.6 1 1.1-.7 1.2-.7 2 1.1 2.1 1.1-.6.9-.6 1 1.7-.7 1.7-.6-.7 1.1-.7 1.2 1.5-.6 1.4-.6 2.1 1.2 2.2 1.1-.7 1.1-.7 1 2-.6 2-.6 1.7.6 1.8.7-1.4.9-1.3.9 2.4-.6 2.4-.7-.6.9-.6.9 3.2-.3 3.2-.3-2.5 1-2.5.9 4.5-.4 4.5-.5-2 1-2 .9 4.5-.4 4.5-.5-2.5.9-2.5.9 6.5-.3 6.5-.4-4 .7-4 .7 9.4.8 9.4.7 62.1-.1 62.1-.2 7.5-.7 7.5-.7-4.5-.3-4.5-.2 5.8-.9 5.8-.8 3.7-1.1 3.7-1 2 .1 2 .1-2.5.8-2.5.8h2l2 .1 2-.9 2-.9-2-.1-2-.2 3-1.3 3-1.4h1.5l1.5-.1-1.5 1-1.5 1h2l1.5-1 1.5-1H258l-1.5-.1 3.5-1.9 3.5-1.9.8-.1h.8l-.6 1-.6 1 1.7-.7 1.8-.7-1.3-.4-1.2-.4 5.3-3.5 5.3-3.5 5.2-4.5 5.3-4.4 4.6-5.9 4.7-6 .8.6.9.5-.6-1.4-.5-1.5 1.9-3.2 2-3.2.4.9.5.8-.3-1.3-.3-1.2 1.1-2.5 1.1-2.5h3.2l-1.3-.9-1.3-.8 1.5-3.8 1.6-3.7.1-2.2.1-2.1.9 2.5.9 2.5-.5-3.6-.5-3.5.6-3.2.6-3.2.7.4.6.4-.2-4.6-.3-4.7.8 2 .9 1.9.6-6.3.7-6.4V156h-1.7l-9.4 7.8-9.4 7.8-7.4 8.5-7.3 8.4-10.1 13.5-10.1 13.5-9.8 13.2-9.8 13.2-8.1 8.6-8.2 8.5-7.6 6.4-7.6 6.3-8.8 5.7-8.7 5.7-7.4 3.4-7.3 3.4-8.9 2.8-8.9 2.7h-16l-16 .1-7.5-2.4-7.5-2.3-8-4-8-4-6.6-4.9-6.7-4.9-6.7-7.1-6.7-7.1-3.5-5.6-3.6-5.6-3.8-8.1-3.8-8.1-2.5-9.5-2.5-9.6-1-11.4-1.1-11.5 1-10.9 1.1-11 1.5-7.5 1.5-7.5 3.5-10.4 3.5-10.4 6.5-12.6 6.5-12.6 6.2-8.7 6.2-8.6 7.4-8.7 7.4-8.7 9.1-8 9.1-7.9 8.9-6.1 9-6 7.8-3.9 7.9-4 9.2-3 9.2-3.1 8.5-1.4 8.5-1.4h18.6l7.7 1.6 7.7 1.5 9.5 4.6 9.5 4.6 8 8.1 8 8.1 3.7 7.5 3.7 7.5 1.5 6.5 1.6 6.5v20.2l-1.9 7.4-1.9 7.4-2.6 5.9-2.6 5.9-5.7 8.6-5.7 8.5-7.7 7.6-7.6 7.6-8.9 6-8.9 6.1-9 5-9 5-12.3 6.8-12.3 6.7-7.7 5.7-7.7 5.7-5.7 6.3-5.6 6.3-3.8 7.1-3.7 7.2-.3.4-.3.3-3.4-2.1-3.5-2.1-2.7-3.5-2.6-3.5-2.7-5.8-2.6-5.7-.4-9.8-.4-9.8 2.2-6.8 2.1-6.8 3.9-5.1 3.9-5.2-3-3.2-3-3.3-2.2-4.5-2.1-4.5-.4-6.6-.4-6.7 1.6-5.3 1.5-5.4 3-4.8 3.1-4.7 4.7-3 4.7-3h1.6v11.5l1.1 4 1.1 4 4.2 4.2 4.2 4.1 5.9 1.7 5.9 1.8 12.6-.6 12.5-.6 9-2.6 9-2.6 11-5.3 11-5.4 4.7-4.1 4.6-4.1 1.8-4.6 1.7-4.5-1.2-3.8-1.1-3.9-4.4-4-4.4-4.1-4-2-4.1-2.1-7.8-2.2-7.8-2.3h-18l-18 .1-8.5 2.3-8.5 2.3-7.5 2.9-7.5 2.9-8.4 5.1-8.5 5.2-7.8 7.5-7.8 7.5-4.9 6.6-5 6.6-4 8.4-4 8.3-1.2 5.6-1.1 5.6.4 8.6.4 8.5 3.3 6.3 3.4 6.2 4.5 4.2 4.5 4.1.3 6.3.3 6.3 2.2 6.3 2.1 6.3 4.5 6.8 4.5 6.8 5.9 4.9 5.8 4.8 6.3 3 6.3 3 2.7.6 2.6.6 1.3-3.8 1.2-3.7 2.8-5.5 2.7-5.5 4.9-6 4.9-6 2.5.1 2.4.1 5.4 1.2 5.4 1.1h10.4l7.5-1.9 7.6-2 7.9-3.9 7.9-4 7.9-5.9 8-5.9 9-8.6 9-8.6 16.5-17.7 16.5-17.7 8.8-7.8 8.9-7.8 6.4-3.7 6.4-3.8V92.5l-.7-5.5-.6-5.4-.7 1.9-.7 1.9-.6-6.3-.7-6.3.7-1.1.6-1-1.3.8-1.2.8.6-4.4.5-4.4-.8 2.5-.9 2.5-.1-2.1-.1-2.2-1.5-3.6-1.6-3.7.6-.9.6-1h-1.8l-1.2-2.6-1.1-2.5.6-1.1.7-1.1-1 .6-1 .6-2.1-4.2-2.1-4.2-5.5-6.7-5.5-6.7-6.8-5.3-6.8-5.4-6-3.1-6-3.1-5.5-2.1-5.5-2-8.5-1.6-8.5-1.6-4.3-.9-4.2-1-66.8.1-66.7.1zm193.9 296.2-.7 1.1 1.1-.7 1.2-.7v-.9h-.9zm-4.4 3.3v.5h1v-1h-1z"/><path d="M271 304.5v.5h1v-1h-1zm-2 1v.5h1v-1h-1zm-219 4v.5h1v-1h-1zm212 0v.5h1v-1h-1zm-210 1v.5h1v-1h-1zm208 0v.5h1v-1h-1zm-203 2v.5h1v-1h-1zm196 1v.5h1v-1h-1zm-11.2 3.2 1.3.5.6-.6.6-.6-1.9.1-1.9.1zm-5 1 1.2.5 1.3-.5 1.2-.5h-5z"/></g><path fill="#FF6D00" fill-opacity=".05" stroke="#FF6D00" stroke-opacity=".05" stroke-width="1.1" d="M66 2.5V3h1V2h-1z"/><path fill="#DB9233" stroke="#DB9233" stroke-width="1.1" d="m181.3 27.7.7.6.7-.6.6-.7h-2.6zm20 0 .7.6.7-.6.6-.7h-2.6zm-27 1 .7.6.7-.6.6-.7h-2.6zm33.7-.2v.5h1v-1h-1zm-39 1v.5h1v-1h-1zm44 0v.5h1v-1h-1zm-48 1v.5h1v-1h-1zm54 1v.5h1v-1h-1zm-61 1v.5h1v-1h-1zm64 0v.5h1v-1h-1zm-67 1v.5h1v-1h-1zm69 0v.5h1v-1h-1zm-74 2v.5h1v-1h-1zm80 1v.5h1v-1h-1zm-85 1v.5h1v-1h-1zm87 0v.5h1v-1h-1zm-89 1v.5h1v-1h-1zm-2 1v.5h1v-1h-1zm94 0v.5h1v-1h-1zm-96 1v.5h1v-1h-1zm-2 1v.5h1v-1h-1zm-2 1v.5h1v-1h-1zm104.5.5.6 1h1l-.6-1-.6-1h-1zM130 45.5v.5h1v-1h-1zm-5 3v.5h1v-1h-1zm-3 2v.5h1v-1h-1zm125-.1v.4l1.8 1.3 1.7 1.4-1.4-1.8-1.3-1.7h-.8zm-129 3.1v.5h1v-1h-1zm-3.6 2.7-.7 1.1 1.1-.7 1.2-.7V55h-.9zm136.6-.7v.5h1v-1h-1zm2 3v.5h1v-1h-1zm-143.6 1.7-.7 1.1 1.1-.7 1.2-.7V59h-.9zm144.6.3v.5h1v-1h-1zM97 71.7l-5.5 5.8 5.8-5.5 5.7-5.4V66h-.6zm161-3.2v.5h1v-1h-1zm1 3v.5h1v-1h-1zm1 3v.5h1v-1h-1zm1 4v.5h1v-1h-1zm1.1 5.1.1 1.9.5-1.3.5-1.3-.6-.6-.6-.6zm-176.7.6-.7 1.1 1.1-.7 1.2-.7V83h-.9zm94.4 3.5 3.2.4 3.3-.4 3.2-.4h-13zm-98.4 1.5-.7 1.1 1.1-.7 1.2-.7V88h-.9zm85.4-.5 1.3.5.6-.6.6-.6-1.9.1-1.9.1zm30.5 0 .7.6.7-.6.6-.7h-2.6zm-36.3.8v.5h1v-1h-1zm43 0v.5h1v-1h-1zm-48 1v.5h1v-1h-1zm52 0v.5h1v-1h-1zm-56 1v.5h1v-1h-1zm59 0v.5h1v-1h-1zm-62 1v.5h1v-1h-1zm65 0v.5h1v-1h-1zm-136 1v.5h1v-1h-1zm68 0v.5h1v-1h-1zm-3 1v.5h1v-1h-1zm76 0v.5h1v-1h-1zm-79 1v.5h1v-1h-1zm81 0v.5h1v-1h-1zm-145 1v.5h1v-1h-1zm62 0v.5h1v-1h-1zm-7 3v.5h1v-1h-1zm96.5.5.6 1h1l-.6-1-.6-1h-1zm-154.5.5v.5h1v-1h-1zm189.1 2.1.1 1.9.5-1.3.5-1.3-.6-.6-.6-.6zm-191.1.9v.5h1v-1h-1zm53 0v.5h1v-1h-1zm107 0v.5h1v-1h-1zm-109 1v.5h1v-1h-1zm-52 1v.5h1v-1h-1zm49 1v.5h1v-1h-1zm114 0v.5h1v-1h-1zm-165 2v.5h1v-1h-1zm193 0v.5h1v-1h-1zm-146 1v.5h1v-1h-1zm119 0v.5h1v-1h-1zm-167 1v.5h1v-1h-1zm193 2v.5h1v-1h-1zm-195 1v.5h1v-1h-1zm43.4 1.7-1.9 2.3 2.3-1.9 2.2-1.9v-.7h-.7zm-44.4.3v.5h1v-1h-1zm170 .5v1.3l.7-.6.6-.7-.6-.7-.7-.6zm25 0v1.3l.7-.6.6-.7-.6-.7-.7-.6zm-125.7.7.7.6.7-.6.6-.7h-2.6zm-70.3.8v.5h1v-1h-1zm66 1v.5h1v-1h-1zm104 0v.5h1v-1h-1zm25 0v.5h1v-1h-1zm-196 1v.5h1v-1h-1zm62.4 2.7-1.9 2.3 2.3-1.9 2.2-1.9v-.7h-.7zm9.8.8v3.5l.5-1.8.4-1.7-.4-1.8-.5-1.7zm97.8-2.5v.5h1v-1h-1zm-171 1v.5h1v-1h-1zm39.4 1.7-1.9 2.3 2.3-1.9 2.2-1.9v-.7h-.7zm156.6-1.7v.5h1v-1h-1zm-197 2v.5h1v-1h-1zm196 0v.5h1v-1h-1zm-197 2v.5h1v-1h-1zm196 0v.5h1v-1h-1zm-197 2v.5h1v-1h-1zm62 0v.5h1v-1h-1zm-24.6 1.7-.7 1.1 1.1-.7 1.2-.7v-.9h-.9zm128.6-.7v.5h1v-1h-1zm-167 1v.5h1v-1h-1zm62 0v.5h1v-1h-1zm16 .5v1.3l.7-.6.6-.7-.6-.7-.7-.6zm-17 1.5v.5h1v-1h-1zm134 0v.5h1v-1h-1zm-159 1v.5h1v-1h-1zm125 0v.5h1v-1h-1zm-82 1v.5h1v-1h-1zm80 0v.5h1v-1h-1zm35 0v.5h1v-1h-1zm-196 1v.5h1v-1h-1zm36 1v.5h1v-1h-1zm46 0v.5h1v-1h-1zm113 0v.5h1v-1h-1zm55 0v.5h1v-1h-1zm-251 1v.5h1v-1h-1zm62 0v.5h1v-1h-1zm94 0v.5h1v-1h-1zm-2 1v.5h1v-1h-1zm94 0v.5h1v-1h-1zm-213 1v.5h1v-1h-1zm51.5 1.5 1.8 2h1l-1.8-2-1.8-2h-1zm65.5-1.5v.5h1v-1h-1zm42 0v.5h1v-1h-1zm-195 1v.5h1v-1h-1zm245.4.7-.7 1.1 1.1-.7 1.2-.7v-.9h-.9zm-210.4.3v.5h1v-1h-1zm27.1 1.1.1 1.9.5-1.3.5-1.3-.6-.6-.6-.6zm85.9-1.1v.5h1v-1h-1zm-3 1v.5h1v-1h-1zm47.4.7-.7 1.1 1.1-.7 1.2-.7v-.9h-.9zm-193.4.3v.5h1v-1h-1zm143 0v.5h1v-1h-1zm-50 1v.5h1v-1h-1zm47 0v.5h1v-1h-1zm101.4.7-.7 1.1 1.1-.7 1.2-.7v-.9h-.9zm-146.4.3v.5h1v-1h-1zm41 0v.5h1v-1h-1zm-137 1v.5h1v-1h-1zm99 0v.5h1v-1h-1zm34 0v.5h1v-1h-1zm58.4.7-.7 1.1 1.1-.7 1.2-.7v-.9h-.9zm-157.4.3v.5h1v-1h-1zm68.3.2.7.6.7-.6.6-.7h-2.6zm25 0 .7.6.7-.6.6-.7h-2.6zm-17.5 1 1.2.5 1.3-.5 1.2-.5h-5zm6.5 0 1.7.4 1.8-.4 1.7-.5h-7zm-83.3.8v.5h1v-1h-1zm-34 1v.5h1v-1h-1zm33 1v.5h1v-1h-1zm198 5.2-5.5 5.8 5.8-5.5 5.7-5.4v-.6h-.6zM115 152v1.3l.7-.6.6-.7-.6-.7-.7-.6zm-66 .5v.5h1v-1h-1zm33 1v.5h1v-1h-1zm152.9 1.2-1.4 1.8 1.8-1.4 1.7-1.3v-.8h-.8zm76.1.8v.5h1v-1h-1zm-263 1v.5h1v-1h-1zm33 0v.5h1v-1h-1zm35 0v.5h1v-1h-1zm192 1v.5h1v-1h-1zM80 160v1.3l.7-.6.6-.7-.6-.7-.7-.6zm224 .5v.5h1v-1h-1zm-257 1v.5h1v-1h-1zm71 0v.5h1v-1h-1zm108.4.7-.7 1.1 1.1-.7 1.2-.7v-.9h-.9zm72.5 2.5-1.4 1.8 1.8-1.4 1.7-1.3v-.8h-.8zm-219.7 1.8v3l.5-1.8.5-1.7-.5-1.3-.5-1.2zm40.8-2v.5h1v-1h-1zm102 1v.5h1v-1h-1zM46 167v1.3l.7-.6.6-.7-.6-.7-.7-.6zm172 1.5v.5h1v-1h-1zm-3 2v.5h1v-1h-1zm-3 2v.5h1v-1h-1zm50.4 2.7-2.9 3.3 3.3-2.9 3.2-3v-.6h-.6zm-217.3-.6.1 1.9.5-1.3.5-1.3-.6-.6-.6-.6zm34.1 1.4v2.5l.5-1.3.5-1.2-.5-1.3-.5-1.2zm42.8-.5v.5h1v-1h-1zm85 0v.5h1v-1h-1zm-2 1v.5h1v-1h-1zm-85 2v.5h1v-1h-1zm82 0v.5h1v-1h-1zm-2 1v.5h1v-1h-1zm82.4 1.7-1.9 2.3 2.3-1.9 2.2-1.9v-.7h-.7zm-84.4-.7v.5h1v-1h-1zm-118 1v.5h1v-1h-1zm113 2v.5h1v-1h-1zm-112 1v.5h1v-1h-1zm36 0v.5h1v-1h-1zm74 0v.5h1v-1h-1zm-2 1v.5h1v-1h-1zm-107 1v.5h1v-1h-1zm34 0v.5h1v-1h-1zm71 0v.5h1v-1h-1zm89.4 1.7-.7 1.1 1.1-.7 1.2-.7v-.9h-.9zm-232.4.3v.5h1v-1h-1zm71 1v.5h1v-1h-1zm-31 1v.5h1v-1h-1zm96 0v.5h1v-1h-1zm-2 1v.5h1v-1h-1zM85.5 193l.6 1h1l-.6-1-.6-1h-1zm90.5-.5v.5h1v-1h-1zm96.4.7-.7 1.1 1.1-.7 1.2-.7v-.9h-.9zM114 194v1.3l.7-.6.6-.7-.6-.7-.7-.6zm57 1.5v.5h1v-1h-1zm72 0v.5h1v-1h-1zm-74 1v.5h1v-1h-1zm100.4.7-.7 1.1 1.1-.7 1.2-.7v-.9h-.9zm-179.9.8.6 1h1l-.6-1-.6-1h-1zm76.5.5v.5h1v-1h-1zm-3 2v.5h1v-1h-1zm103.4.7-.7 1.1 1.1-.7 1.2-.7v-.9h-.9zM95 202.5v.5h1v-1h-1zm65 0v.5h1v-1h-1zm-114.9 2.1.1 1.9.5-1.3.5-1.3-.6-.6-.6-.6zm218.3.6-.7 1.1 1.1-.7 1.2-.7v-.9h-.9zm-107.4.3v.5h1v-1h-1zm75.4.7-.7 1.1 1.1-.7 1.2-.7v-.9h-.9zm29 3-.7 1.1 1.1-.7 1.2-.7v-.9h-.9zm-112.5 3.5-3.4 3.8 3.8-3.4 3.7-3.5v-.6h-.6zM114 211v1.3l.7-.6.6-.7-.6-.7-.7-.6zm111.4.2-.7 1.1 1.1-.7 1.2-.7v-.9h-.9zm-179.4.3v.5h1v-1h-1zm50.1 2.1.1 1.9.5-1.3.5-1.3-.6-.6-.6-.6zm161.9-1.1v.5h1v-1h-1zm-37 2v.5h1v-1h-1zm-106 1v.5h1v-1h-1zm140.4.7-.7 1.1 1.1-.7 1.2-.7v-.9h-.9zM47 217v1.3l.7-.6.6-.7-.6-.7-.7-.6zm171-.5v.5h1v-1h-1zM97 219v1.3l.7-.6.6-.7-.6-.7-.7-.6zm19-.5v.5h1v-1h-1zm99 0v.5h1v-1h-1zm37.4 1.7-.7 1.1 1.1-.7 1.2-.7v-.9h-.9zM48 221v1.3l.7-.6.6-.7-.6-.7-.7-.6zm69-.5v.5h1v-1h-1zm24 0v.5h1v-1h-1zm71 0v.5h1v-1h-1zm-2 1v.5h1v-1h-1zm-112 1v.5h1v-1h-1zm41 1v.5h1v-1h-1zm111 0v.5h1v-1h-1zm-201 1v.5h1v-1h-1zm50 0v.5h1v-1h-1zm20 0v.5h1v-1h-1zm83 1v.5h1v-1h-1zm-82 1v.5h1v-1h-1zm17 0v.5h1v-1h-1zm63 0v.5h1v-1h-1zM50 228v1.3l.7-.6.6-.7-.6-.7-.7-.6zm50-.5v.5h1v-1h-1zm97 0v.5h1v-1h-1zm50 0v.5h1v-1h-1zm-111 1v.5h1v-1h-1zm24 0v.5h1v-1h-1zm34 0v.5h1v-1h-1zm-93 1v.5h1v-1h-1zm54.4 1.7-1.9 2.3 2.3-1.9 2.2-1.9v-.7h-.7zm8.6-1.7v.5h1v-1h-1zm26 0v.5h1v-1h-1zM51 231v1.3l.7-.6.6-.7-.6-.7-.7-.6zm84-.5v.5h1v-1h-1zm34 0v.5h1v-1h-1zm16 0v.5h1v-1h-1zm-60.5 1.5.6 1h1l-.6-1-.6-1h-1zm119.5-.5v.5h1v-1h-1zm-141 1v.5h1v-1h-1zm31 0v.5h1v-1h-1zm-82 1v.5h1v-1h-1zm52.5 1.5.6 1h1l-.6-1-.6-1h-1zm28.5-.5v.5h1v-1h-1zm108.4.7-.7 1.1 1.1-.7 1.2-.7v-.9h-.9zm-112.4.3v.5h1v-1h-1zm-76 1v.5h1v-1h-1zm79 0v.5h1v-1h-1zm18 1v.5h1v-1h-1zm-96 1v.5h1v-1h-1zm53.5.5.6 1h1l-.6-1-.6-1h-1zm129.4 1.7-1.4 1.8 1.8-1.4 1.7-1.3v-.8h-.8zM55 240.5v.5h1v-1h-1zm93 0v.5h1v-1h-1zm-2 3v.5h1v-1h-1zm-89 1v.5h1v-1h-1zm88 1v.5h1v-1h-1zm-87 1v.5h1v-1h-1zm170.9 3.2-3.4 3.8 3.8-3.4 3.7-3.5v-.6h-.6zM59 248.5v.5h1v-1h-1zm58 0v.5h1v-1h-1zm26 1v.5h1v-1h-1zm-82 2v.5h1v-1h-1zm60 0v.5h1v-1h-1zm21 0v.5h1v-1h-1zm-79 3v.5h1v-1h-1zm63 0v.5h1v-1h-1zm15 0v.5h1v-1h-1zm-13 1v.5h1v-1h-1zm91.4 3.7-2.9 3.3 3.3-2.9 3.2-3v-.6h-.6zM65 257.5v.5h1v-1h-1zm68 0v.5h1v-1h-1zm3 1v.5h1v-1h-1zm4 0v.5h1v-1h-1zm-72 2.9v.4l1.8 1.3 1.7 1.4-1.4-1.8-1.3-1.7H68zm142.4 5.8-.7 1.1 1.1-.7 1.2-.7v-.9h-.9zm-4.4 3.3v.5h1v-1h-1zm-127 1.9v.4l1.8 1.3 1.7 1.4-1.4-1.8-1.3-1.7H79zm123 1.1v.5h1v-1h-1zm-3 2v.5h1v-1h-1zm-114 2v.5h1v-1h-1zm111 0v.5h1v-1h-1zm-108 2v.5h1v-1h-1zm105 0v.5h1v-1h-1zm-2 1v.5h1v-1h-1zm-100 1v.5h1v-1h-1zm3 2v.5h1v-1h-1zm92 0v.5h1v-1h-1zm-90 1v.5h1v-1h-1zm88 0v.5h1v-1h-1zm-2 1v.5h1v-1h-1zm-2 1v.5h1v-1h-1zm-5 2v.5h1v-1h-1zm-69 1v.5h1v-1h-1zm67 0v.5h1v-1h-1zm-3 1v.5h1v-1h-1zm-59 1v.5h1v-1h-1zm56 0v.5h1v-1h-1zm-53 1v.5h1v-1h-1zm50 0v.5h1v-1h-1zm-46 1v.5h1v-1h-1zm42 0v.5h1v-1h-1zm-37.7 1.2.7.6.7-.6.6-.7h-2.6zm33 0 .7.6.7-.6.6-.7h-2.6zm-27 1 .7.6.7-.6.6-.7h-2.6zm20 0 .7.6.7-.6.6-.7h-2.6z"/><path fill="#DB9266" stroke="#DB9266" stroke-width="1.1" d="M183 27.5v.5h1v-1h-1zm17 0v.5h1v-1h-1zm-30 2v.5h1v-1h-1zm42 0v.5h1v-1h-1zm4 1v.5h1v-1h-1zm-54 1v.5h1v-1h-1zm-9 3v.5h1v-1h-1zm73 0v.5h1v-1h-1zm2 1v.5h1v-1h-1zm-80 1v.5h1v-1h-1zm88 4v.5h1v-1h-1zm-104 4v.5h1v-1h-1zm109 0v.5h1v-1h-1zm-114 3v.5h1v-1h-1zm-3 2v.5h1v-1h-1zm122 0v.5h1v-1h-1zm-125 2v.5h1v-1h-1zm129 3v.5h1v-1h-1zm-137 3v.5h1v-1h-1zm-5.6 4.7-.7 1.1 1.1-.7 1.2-.7V61h-.9zm147.6.3v.5h1v-1h-1zm1 2v.5h1v-1h-1zm1 2v.5h1v-1h-1zm3 9v.5h1v-1h-1zm1 4v.5h1v-1h-1zM87.4 82.2l-.7 1.1 1.1-.7 1.2-.7V81h-.9zM262 86v1.3l.7-.6.6-.7-.6-.7-.7-.6zM83 87.5v.5h1v-1h-1zm91.8.2 1.3.5.6-.6.6-.6-1.9.1-1.9.1zm15 0 1.3.5.6-.6.6-.6-1.9.1-1.9.1zm9.2.8v.5h1v-1h-1zm-39 1v.5h1v-1h-1zm52 2v.5h1v-1h-1zm-133 1v.5h1v-1h-1zm69 0v.5h1v-1h-1zm69 1v.5h1v-1h-1zm6 3v.5h1v-1h-1zm-88 1v.5h1v-1h-1zm-2 1v.5h1v-1h-1zm93 0v.5h1v-1h-1zm-152 1v.5h1v-1h-1zm188 .5v1.3l.7-.6.6-.7-.6-.7-.7-.6zm-133 .5v.5h1v-1h-1zm-2 1v.5h1v-1h-1zm-55 1v.5h1v-1h-1zm160 2v.5h1v-1h-1zm29 3v.5h1v-1h-1zm-145 1v.5h1v-1h-1zm118 0v.5h1v-1h-1zm-122.6 3.7-.7 1.1 1.1-.7 1.2-.7v-.9h-.9zm148.6-.7v.5h1v-1h-1zm-129 6v.5h1v-1h-1zm3.1 1.1.1 1.9.5-1.3.5-1.3-.6-.6-.6-.6zm122.9 1.9v.5h1v-1h-1zm-28.6 4.7-1.9 2.3 2.3-1.9 2.2-1.9v-.7h-.7zm-130.4.3v.5h1v-1h-1zm23 1v.5h1v-1h-1zm13 .5v1.3l.7-.6.6-.7-.6-.7-.7-.6zm120 .5v.5h1v-1h-1zm-31 2v.5h1v-1h-1zm30 0v.5h1v-1h-1zm-159 1v.5h1v-1h-1zm41 1v.5h1v-1h-1zm85 0v.5h1v-1h-1zm-164 1v.5h1v-1h-1zm255 0v.5h1v-1h-1zm-219 1v.5h1v-1h-1zm217 0v.5h1v-1h-1zm-192 1v.5h1v-1h-1zm190 0v.5h1v-1h-1zm-217 2v.5h1v-1h-1zm159 0v.5h1v-1h-1zm-195 1v.5h1v-1h-1zm62 0v.5h1v-1h-1zm22 0v.5h1v-1h-1zm163 1v.5h1v-1h-1zm-97 1v.5h1v-1h-1zm43 0v.5h1v-1h-1zm-194 1v.5h1v-1h-1zm34 1v.5h1v-1h-1zm-35 2v.5h1v-1h-1zm34 0v.5h1v-1h-1zm29 0v.5h1v-1h-1zm129 0v.5h1v-1h-1zm-159 2v.5h1v-1h-1zm207 0v.5h1v-1h-1zm-241 1v.5h1v-1h-1zm129 0v.5h1v-1h-1zm-96 1v.5h1v-1h-1zm74.3.2.7.6.7-.6.6-.7h-2.6zm13.7-.2v.5h1v-1h-1zm68.4.7-.7 1.1 1.1-.7 1.2-.7v-.9h-.9zM115 150v1.3l.7-.6.6-.7-.6-.7-.7-.6zm-33 2.5v.5h1v-1h-1zm-33 1v.5h1v-1h-1zm32 2v.5h1v-1h-1zm35 0v.5h1v-1h-1zm-68 2v.5h1v-1h-1zm69 1v.5h1v-1h-1zm188 1v.5h1v-1h-1zm-77 1v.5h1v-1h-1zm-181 2v.5h1v-1h-1zm72 0v.5h1v-1h-1zm182 0v.5h1v-1h-1zm-222 1v.5h1v-1h-1zm144 1v.5h1v-1h-1zm-102 1v.5h1v-1h-1zm98 2v.5h1v-1h-1zm-173 1v.5h1v-1h-1zm170 1v.5h1v-1h-1zm50.4 1.7-.7 1.1 1.1-.7 1.2-.7v-.9h-.9zm24.5.5-1.4 1.8 1.8-1.4 1.7-1.3v-.8h-.8zm-77.9-.2v.5h1v-1h-1zm-3 2v.5h1v-1h-1zm-87 1v.5h1v-1h-1zM45 177v1.3l.7-.6.6-.7-.6-.7-.7-.6zm158 .5v.5h1v-1h-1zm-124 1v.5h1v-1h-1zm40 2v.5h1v-1h-1zm77 1v.5h1v-1h-1zm-116 1v.5h1v-1h-1zm38 0v.5h1v-1h-1zm162 1v.5h1v-1h-1zm-199 2v.5h1v-1h-1zm167.5 4.7-5 5.3 5.3-5 5.2-4.9v-.6h-.6zM82 187.5v.5h1v-1h-1zm34 0v.5h1v-1h-1zm69 0v.5h1v-1h-1zm-2 1v.5h1v-1h-1zm-100 1v.5h1v-1h-1zm192 0v.5h1v-1h-1zm-160 1v.5h1v-1h-1zm59 3v.5h1v-1h-1zm97 1v.5h1v-1h-1zm-157 1v.5h1v-1h-1zm-26 1v.5h1v-1h-1zm152.4 1.7-1.9 2.3 2.3-1.9 2.2-1.9v-.7h-.7zm27.6.3v.5h1v-1h-1zM91.5 200l.6 1h1l-.6-1-.6-1h-1zm72.5-.5v.5h1v-1h-1zM45 202v1.3l.7-.6.6-.7-.6-.7-.7-.6zm116-.5v.5h1v-1h-1zm104 1v.5h1v-1h-1zm-108 2v.5h1v-1h-1zm105 2v.5h1v-1h-1zm-32 1v.5h1v-1h-1zm-78 1v.5h1v-1h-1zm-38 1v.5h1v-1h-1zm-68 1v.5h1v-1h-1zm211 3v.5h1v-1h-1zm-142 1v.5h1v-1h-1zm-68 1v.5h1v-1h-1zm49 0v.5h1v-1h-1zm47.4 1.7-.7 1.1 1.1-.7 1.2-.7v-.9h-.9zm-27.4.3v.5h1v-1h-1zm101 0v.5h1v-1h-1zm37 0v.5h1v-1h-1zm-114 4v.5h1v-1h-1zm-22 1v.5h1v-1h-1zm20 2v.5h1v-1h-1zm111 0v.5h1v-1h-1zm-150 1v.5h1v-1h-1zm22 2v.5h1v-1h-1zm38 1v.5h1v-1h-1zm36 0v.5h1v-1h-1zm51 0v.5h1v-1h-1zm-111 1v.5h1v-1h-1zm56 0v.5h1v-1h-1zm-23 1v.5h1v-1h-1zm18 0v.5h1v-1h-1zm-84 1v.5h1v-1h-1zm32 0v.5h1v-1h-1zm109 1v.5h1v-1h-1zm-190 3v.5h1v-1h-1zm78 1v.5h1v-1h-1zm20 0v.5h1v-1h-1zm89 0v.5h1v-1h-1zm-134 1v.5h1v-1h-1zm-50 5v.5h1v-1h-1zm179 0v.5h1v-1h-1zm-91 5v.5h1v-1h-1zm-84 2v.5h1v-1h-1zm58 0v.5h1v-1h-1zm6 4v.5h1v-1h-1zm99.9 1.2-1.4 1.8 1.8-1.4 1.7-1.3v-.8h-.8zm-82.9.8v.5h1v-1h-1zm-11 1v.5h1v-1h-1zm-64 2v.5h1v-1h-1zm5 6v.5h1v-1h-1zm141.4.7-.7 1.1 1.1-.7 1.2-.7v-.9h-.9zm-5.4 4.3v.5h1v-1h-1zM77.5 271l.6 1h1l-.6-1-.6-1h-1zm125.5 1.5v.5h1v-1h-1zm-119 4v.5h1v-1h-1zm110 2v.5h1v-1h-1zm-5 3v.5h1v-1h-1zm-91 4v.5h1v-1h-1zm2 1v.5h1v-1h-1zm2 1v.5h1v-1h-1zm75 0v.5h1v-1h-1zm-73 1v.5h1v-1h-1zm5 2v.5h1v-1h-1zm3 1v.5h1v-1h-1zm3 1v.5h1v-1h-1zm48 0v.5h1v-1h-1zm-4 1v.5h1v-1h-1zm-5 1v.5h1v-1h-1zm-24 1v.5h1v-1h-1zm17 0v.5h1v-1h-1z"/><path fill="#DBB666" stroke="#DBB666" stroke-width="1.1" d="m184.3 27.7.7.6.7-.6.6-.7h-2.6zm14 0 .7.6.7-.6.6-.7h-2.6zm-22.3.8v.5h1v-1h-1zm31 0v.5h1v-1h-1zm-36 1v.5h1v-1h-1zm-5 1v.5h1v-1h-1zm49 0v.5h1v-1h-1zm-56 2v.5h1v-1h-1zm62 0v.5h1v-1h-1zm-65 1v.5h1v-1h-1zm-10 4v.5h1v-1h-1zm87 1v.5h1v-1h-1zm-99 5v.5h1v-1h-1zM243.5 47l1.8 2h1l-1.8-2-1.8-2h-1zM129 46.5v.5h1v-1h-1zm-12 8v.5h1v-1h-1zm135 3v.5h1v-1h-1zm-140 1v.5h1v-1h-1zm-6 5v.5h1v-1h-1zm152 6v.5h1v-1h-1zm1 3v.5h1v-1h-1zM89.4 80.2l-.7 1.1 1.1-.7 1.2-.7V79h-.9zm171.6.3v.5h1v-1h-1zm-177 6v.5h1v-1h-1zm88.3 1.2.7.6.7-.6.6-.7h-2.6zm20 0 .7.6.7-.6.6-.7h-2.6zm69.9 1.3v2.5l.5-1.3.5-1.2-.5-1.3-.5-1.2zm-97.2-.5v.5h1v-1h-1zm35 0v.5h1v-1h-1zm5 1v.5h1v-1h-1zm-50 1v.5h1v-1h-1zm54 0v.5h1v-1h-1zm-129 1v.5h1v-1h-1zm71 0v.5h1v-1h-1zm64 1v.5h1v-1h-1zm-70 1v.5h1v-1h-1zm-3 1v.5h1v-1h-1zm-65 1v.5h1v-1h-1zm60 1v.5h1v-1h-1zm125.1 1.1.1 1.9.5-1.3.5-1.3-.6-.6-.6-.6zM75 98.5v.5h1v-1h-1zm-2 3v.5h1v-1h-1zm52 1v.5h1v-1h-1zm-54 2v.5h1v-1h-1zm49 1v.5h1v-1h-1zm141 .5v1.3l.7-.6.6-.7-.6-.7-.7-.6zm-192 1.5v.5h1v-1h-1zm44 3v.5h1v-1h-1zm147 0v.5h1v-1h-1zm-194 2v.5h1v-1h-1zm-1 2v.5h1v-1h-1zm194 0v.5h1v-1h-1zm-1 3v.5h1v-1h-1zm-130 2v.5h1v-1h-1zm105 0v.5h1v-1h-1zm-2 3v.5h1v-1h-1zm25 0v.5h1v-1h-1zm-134 3v.5h1v-1h-1zm-25 1v.5h1v-1h-1zm129 1v.5h1v-1h-1zm-168 1v.5h1v-1h-1zm62 0v.5h1v-1h-1zm14 0v.5h1v-1h-1zm-77 2v.5h1v-1h-1zm62 0v.5h1v-1h-1zm103 0v.5h1v-1h-1zm-104 2v.5h1v-1h-1zm133 0v.5h1v-1h-1zm-34 1v.5h1v-1h-1zm-126 1v.5h1v-1h-1zm45 0v.5h1v-1h-1zm79 0v.5h1v-1h-1zm35 0v.5h1v-1h-1zm-195 1v.5h1v-1h-1zm158 0v.5h1v-1h-1zm-2 1v.5h1v-1h-1zm93 0v.5h1v-1h-1zm-95 1v.5h1v-1h-1zm39 0v.5h1v-1h-1zm-132 1v.5h1v-1h-1zm-28 1v.5h1v-1h-1zm114 1v.5h1v-1h-1zm44 0v.5h1v-1h-1zm-47 1v.5h1v-1h-1zm98 0v.5h1v-1h-1zm-154 1v.5h1v-1h-1zm53 0v.5h1v-1h-1zm-3 1v.5h1v-1h-1zm-77.8 3v3l.5-1.8.5-1.7-.5-1.3-.5-1.2zm73.8-2v.5h1v-1h-1zm-40 1v.5h1v-1h-1zm36 0v.5h1v-1h-1zm-33 1v.5h1v-1h-1zm138.4.7-.7 1.1 1.1-.7 1.2-.7v-.9h-.9zm-133.4.3v.5h1v-1h-1zm16.3.2.7.6.7-.6.6-.7h-2.6zM83 149.5v.5h1v-1h-1zm156 0v.5h1v-1h-1zm-189 1v.5h1v-1h-1zm-1 4v.5h1v-1h-1zm32 0v.5h1v-1h-1zm228 2v.5h1v-1h-1zm-261 2v.5h1v-1h-1zm32 0v.5h1v-1h-1zm149.4.7-.7 1.1 1.1-.7 1.2-.7v-.9h-.9zm76.6-.7v.5h1v-1h-1zm-188 2v.5h1v-1h-1zm184 1v.5h1v-1h-1zm-223 1v.5h1v-1h-1zm-32 1v.5h1v-1h-1zm75 3v.5h1v-1h-1zm98 0v.5h1v-1h-1zm49.4 1.7-1.9 2.3 2.3-1.9 2.2-1.9v-.7h-.7zm24.5.5-1.4 1.8 1.8-1.4 1.7-1.3v-.8h-.8zM46 170v1.3l.7-.6.6-.7-.6-.7-.7-.6zm79.1 2.3-1.3 2.2 1.8-1.7 1.8-1.8-.5-.4-.5-.5zm162.3 2.9-1.9 2.3 2.3-1.9 2.2-1.9v-.7h-.7zm-79.4-.7v.5h1v-1h-1zm-87 3v.5h1v-1h-1zm-75.9 2.1.1 1.9.5-1.3.5-1.3-.6-.6-.6-.6zm33.9-.1v.5h1v-1h-1zm176.4 3.7-1.9 2.3 2.3-1.9 2.2-1.9v-.7h-.7zm-61.4-.7v.5h1v-1h-1zm-2 1v.5h1v-1h-1zm86.4 1.7-.7 1.1 1.1-.7 1.2-.7v-.9h-.9zm-97.4 4.3v.5h1v-1h-1zm-2 1v.5h1v-1h-1zm95 0v.5h1v-1h-1zm-190 1v.5h1v-1h-1zm31 0v.5h1v-1h-1zm57 3v.5h1v-1h-1zm-85 1v.5h1v-1h-1zm183 0v.5h1v-1h-1zM114 197v1.3l.7-.6.6-.7-.6-.7-.7-.6zm53 .5v.5h1v-1h-1zm-121.9 2.1.1 1.9.5-1.3.5-1.3-.6-.6-.6-.6zm221.9-.1v.5h1v-1h-1zm-30.1 2.2-1.4 1.8 1.8-1.4 1.7-1.3v-.8h-.8zM93 201.5v.5h1v-1h-1zm65 2v.5h1v-1h-1zm106 0v.5h1v-1h-1zM95 208v1.3l.7-.6.6-.7-.6-.7-.7-.6zm19 0v1.3l.7-.6.6-.7-.6-.7-.7-.6zm39-.5v.5h1v-1h-1zM46 209v1.3l.7-.6.6-.7-.6-.7-.7-.6zm183-.5v.5h1v-1h-1zm30 2v.5h1v-1h-1zm-35 2v.5h1v-1h-1zm-109 1v.5h1v-1h-1zm-68 1v.5h1v-1h-1zm209 0v.5h1v-1h-1zm-36 1v.5h1v-1h-1zm-124 1v.5h1v-1h-1zm46 2v.5h1v-1h-1zm-94 1v.5h1v-1h-1zm166 0v.5h1v-1h-1zm-117 1v.5h1v-1h-1zm154 1v.5h1v-1h-1zm-112 1v.5h1v-1h-1zm70 0v.5h1v-1h-1zm-160 1v.5h1v-1h-1zm49 0v.5h1v-1h-1zm109 0v.5h1v-1h-1zm-2 1v.5h1v-1h-1zm-85 1v.5h1v-1h-1zm83 0v.5h1v-1h-1zm45 0v.5h1v-1h-1zm-198 1v.5h1v-1h-1zm86 1v.5h1v-1h-1zm62 0v.5h1v-1h-1zm-76 1v.5h1v-1h-1zm-71 1v.5h1v-1h-1zm112 0v.5h1v-1h-1zm29 0v.5h1v-1h-1zm53 0v.5h1v-1h-1zm-58 1v.5h1v-1h-1zm-135 2v.5h1v-1h-1zm51 1v.5h1v-1h-1zm30 0v.5h1v-1h-1zm109 0v.5h1v-1h-1zm-114 1v.5h1v-1h-1zm4 1v.5h1v-1h-1zm20 0v.5h1v-1h-1zm-47 1v.5h1v-1h-1zm-51 1v.5h1v-1h-1zm185 0v.5h1v-1h-1zm-90 2v.5h1v-1h-1zm-40 1.8v.3l3.3 3 3.2 2.9-2.9-3.3-3-3.2h-.6zm38 1.2v.5h1v-1h-1zm86.4 1.7-.7 1.1 1.1-.7 1.2-.7v-.9h-.9zM59 247.5v.5h1v-1h-1zm60 3v.5h1v-1h-1zm-57 2v.5h1v-1h-1zm60 0v.5h1v-1h-1zm20 0v.5h1v-1h-1zm-78 3v.5h1v-1h-1zm77 1v.5h1v-1h-1zm-9 1v.5h1v-1h-1zm3 1v.5h1v-1h-1zm-68 1v.5h1v-1h-1zm147 4v.5h1v-1h-1zm-140 4 2.3 2.5h1l-2.3-2.5-2.3-2.5h-1zm134 1v.5h1v-1h-1zm-4 3v.5h1v-1h-1zm-4 3v.5h1v-1h-1zm-117 1v.5h1v-1h-1zm114 1v.5h1v-1h-1zm-110 2v.5h1v-1h-1zm3 2v.5h1v-1h-1zm3 2v.5h1v-1h-1zm94 0v.5h1v-1h-1zm-2 1v.5h1v-1h-1zm-2 1v.5h1v-1h-1zm-2 1v.5h1v-1h-1zm-2 1v.5h1v-1h-1zm-72 3v.5h1v-1h-1zm65 0v.5h1v-1h-1zm-3 1v.5h1v-1h-1zm-3 1v.5h1v-1h-1zm-47 2v.5h1v-1h-1zm5 1v.5h1v-1h-1zm29 0v.5h1v-1h-1zm-21.7 1.2.7.6.7-.6.6-.7h-2.6zm14 0 .7.6.7-.6.6-.7h-2.6z"/><path fill="#DBB699" stroke="#DBB699" stroke-width="1.1" d="m188.8 27.7 3.2.4 3.3-.4 3.2-.4h-13zm-11.8.8v.5h1v-1h-1zm29 0v.5h1v-1h-1zm-34 1v.5h1v-1h-1zm39 0v.5h1v-1h-1zm-44 1v.5h1v-1h-1zm-4 1v.5h1v-1h-1zm55 0v.5h1v-1h-1zm-61 2v.5h1v-1h-1zm66 0v.5h1v-1h-1zm-69 1v.5h1v-1h-1zm-3 1v.5h1v-1h-1zm78 1v.5h1v-1h-1zm2 1v.5h1v-1h-1zm-87 1v.5h1v-1h-1zm-2 1v.5h1v-1h-1zm92 0v.5h1v-1h-1zm-94 1v.5h1v-1h-1zm-2 1v.5h1v-1h-1zm99.5.5.6 1h1l-.6-1-.6-1h-1zm-101.5.5v.5h1v-1h-1zm-5 3v.5h1v-1h-1zm-5 3v.5h1v-1h-1zm-3 2v.5h1v-1h-1zm-3 2v.5h1v-1h-1zm128.5.5.6 1h1l-.6-1-.6-1h-1zM116 55.5v.5h1v-1h-1zm135 1v.5h1v-1h-1zm-140 3v.5h1v-1h-1zm142 0v.5h1v-1h-1zm1 2v.5h1v-1h-1zm1 2v.5h1v-1h-1zm-151.1 2.2-1.4 1.8 1.8-1.4 1.7-1.3V64h-.8zm152.1-.2v.5h1v-1h-1zm1 2v.5h1v-1h-1zm1 3v.5h1v-1h-1zm1 3v.5h1v-1h-1zM91.9 77.7l-1.4 1.8 1.8-1.4 1.7-1.3V76h-.8zM260 77v1.3l.7-.6.6-.7-.6-.7-.7-.6zm1 5v1.3l.7-.6.6-.7-.6-.7-.7-.6zM85.4 85.2l-.7 1.1 1.1-.7 1.2-.7V84h-.9zm84.9 2.5.7.6.7-.6.6-.7h-2.6zm24 0 .7.6.7-.6.6-.7h-2.6zm-30.3.8v.5h1v-1h-1zm37 0v.5h1v-1h-1zm-42 1v.5h1v-1h-1zm47 0v.5h1v-1h-1zm-125 1v.5h1v-1h-1zm73 0v.5h1v-1h-1zm-4 1v.5h1v-1h-1zm63 0v.5h1v-1h-1zm49.2 2v3l.5-1.8.5-1.7-.5-1.3-.5-1.2zm-115.2-1v.5h1v-1h-1zm-3 1v.5h1v-1h-1zm74 0v.5h1v-1h-1zm-140 1v.5h1v-1h-1zm142 0v.5h1v-1h-1zm-81 1v.5h1v-1h-1zm83 0v.5h1v-1h-1zm-146 2v.5h1v-1h-1zm149 0v.5h1v-1h-1zm-93 1v.5h1v-1h-1zm-2 1v.5h1v-1h-1zm-56 1v.5h1v-1h-1zm155-.1v.4l1.8 1.3 1.7 1.4-1.4-1.8-1.3-1.7h-.8zm-106 3.1v.5h1v-1h-1zm138 .5v1.3l.7-.6.6-.7-.6-.7-.7-.6zm-28 1.5v.5h1v-1h-1zm-163 1v.5h1v-1h-1zm47 1v.5h1v-1h-1zm117 0v.5h1v-1h-1zm-166 2v.5h1v-1h-1zm46 0v.5h1v-1h-1zm146 0v.5h1v-1h-1zm-24.8 3v3l.5-1.8.5-1.7-.5-1.3-.5-1.2zm-168.2-1v.5h1v-1h-1zm192 2v.5h1v-1h-1zm-154.5 4.7-4 4.3 4.3-4 4.2-3.9v-.6h-.6zM64 116.5v.5h1v-1h-1zm194 0v.5h1v-1h-1zm-24 1v.5h1v-1h-1zm-171 1v.5h1v-1h-1zm194 1v.5h1v-1h-1zm-195 1v.5h1v-1h-1zm65 0v.5h1v-1h-1zm105 1v.5h1v-1h-1zm-171 1v.5h1v-1h-1zm-1 2v.5h1v-1h-1zm63 0v.5h1v-1h-1zm132 0v.5h1v-1h-1zm-196 2v.5h1v-1h-1zm195 0v.5h1v-1h-1zm-158 1v.5h1v-1h-1zm129 1v.5h1v-1h-1zm28 0v.5h1v-1h-1zm-119 1v.5h1v-1h-1zm118 1v.5h1v-1h-1zm-195 1v.5h1v-1h-1zm36 0v.5h1v-1h-1zm42 1v.5h1v-1h-1zm84 0v.5h1v-1h-1zm-163 1v.5h1v-1h-1zm61 2v.5h1v-1h-1zm132 0v.5h1v-1h-1zm57 0v.5h1v-1h-1zm-169 1v.5h1v-1h-1zm-48 1v.5h1v-1h-1zm214 0v.5h1v-1h-1zm-249 1v.5h1v-1h-1zm153 0v.5h1v-1h-1zm-91 1v.5h1v-1h-1zm184 0v.5h1v-1h-1zm-213 1v.5h1v-1h-1zm-34 1v.5h1v-1h-1zm192 0v.5h1v-1h-1zm-159 1v.5h1v-1h-1zm209.4.7-.7 1.1 1.1-.7 1.2-.7v-.9h-.9zm-151.4.3v.5h1v-1h-1zm-92 1v.5h1v-1h-1zm33 0v.5h1v-1h-1zm61 0v.5h1v-1h-1zm44 0v.5h1v-1h-1zm52.4.7-.7 1.1 1.1-.7 1.2-.7v-.9h-.9zm-56.4.3v.5h1v-1h-1zm-102 1v.5h1v-1h-1zm97 0v.5h1v-1h-1zm-130 1v.5h1v-1h-1zm105 0v.5h1v-1h-1zm19.3.2.7.6.7-.6.6-.7h-2.6zm-92.3.8v.5h1v-1h-1zm203.9 2.2-2.4 2.8 2.8-2.4 2.7-2.4v-.7h-.7zm-52.4 3.5-4 4.3 4.3-4 4.2-3.9v-.6h-.6zM50 151.5v.5h1v-1h-1zm32 0v.5h1v-1h-1zm34 2.5v1.3l.7-.6.6-.7-.6-.7-.7-.6zm-67 1.5v.5h1v-1h-1zm261 0v.5h1v-1h-1zm-230 2v.5h1v-1h-1zm37 0v.5h1v-1h-1zm190 0v.5h1v-1h-1zm-31.5 4.7-4 4.3 4.3-4 4.2-3.9v-.6h-.6zM48 160v1.3l.7-.6.6-.7-.6-.7-.7-.6zm255 .5v.5h1v-1h-1zm-224 1v.5h1v-1h-1zm145.4 1.7-.7 1.1 1.1-.7 1.2-.7v-.9h-.9zm-104.4.3v.5h1v-1h-1zM47 165v1.3l.7-.6.6-.7-.6-.7-.7-.6zm249.4 1.2-.7 1.1 1.1-.7 1.2-.7v-.9h-.9zM123 167.4v.4l1.8 1.3 1.7 1.4-1.4-1.8-1.3-1.7h-.8zM78.2 171v3.5l.5-1.8.4-1.7-.4-1.8-.5-1.7zm138.8-2.5v.5h1v-1h-1zm-3 2v.5h1v-1h-1zM46 172v1.3l.7-.6.6-.7-.6-.7-.7-.6zm165 .5v.5h1v-1h-1zm-5 3v.5h1v-1h-1zm-84 1v.5h1v-1h-1zm137.4 2.7-1.9 2.3 2.3-1.9 2.2-1.9v-.7h-.7zm24 0-1.9 2.3 2.3-1.9 2.2-1.9v-.7h-.7zm-82.4-.7v.5h1v-1h-1zm-81 1v.5h1v-1h-1zm79 0v.5h1v-1h-1zm-120 1v.5h1v-1h-1zm118 0v.5h1v-1h-1zm-151.6 9-.1 9 .4-4.2.4-4.2-.4-4.8-.3-4.8zm73.6-8v.5h1v-1h-1zm-39 2v.5h1v-1h-1zm38 0v.5h1v-1h-1zm72 1v.5h1v-1h-1zm-73 1v.5h1v-1h-1zm71 0v.5h1v-1h-1zm-107 1v.5h1v-1h-1zm105 0v.5h1v-1h-1zm91 0v.5h1v-1h-1zm-195 2v.5h1v-1h-1zm34 0v.5h1v-1h-1zm-33 2v.5h1v-1h-1zm94 1v.5h1v-1h-1zm96 0v.5h1v-1h-1zm-158 1v.5h1v-1h-1zm60 0v.5h1v-1h-1zM85.5 194l.6 1h1l-.6-1-.6-1h-1zm84.5 1.5v.5h1v-1h-1zm99 1v.5h1v-1h-1zm-154.7 6v5l.4-2.8.4-2.7-.4-2.3-.4-2.2zm50.7-4v.5h1v-1h-1zm-3 2v.5h1v-1h-1zm104 0v.5h1v-1h-1zm-171.2 4.2.6 2.8.4-1.9.4-1.8-1-1-1-1zm64.2-2.2v.5h1v-1h-1zm74.9 2.2-1.4 1.8 1.8-1.4 1.7-1.3v-.8h-.8zm29.1-.2v.5h1v-1h-1zm-108.6 1.7-.7 1.1 1.1-.7 1.2-.7v-.9h-.9zM46 207v1.3l.7-.6.6-.7-.6-.7-.7-.6zm215 .5v.5h1v-1h-1zM95.2 211v2.5l.5-1.3.5-1.2-.5-1.3-.5-1.2zm132.2-.8-.7 1.1 1.1-.7 1.2-.7v-.9h-.9zm30.6 1.3v.5h1v-1h-1zm-143 1v.5h1v-1h-1zm-68 1v.5h1v-1h-1zm176 0v.5h1v-1h-1zm32 2v.5h1v-1h-1zm-139 1v.5h1v-1h-1zm103 0v.5h1v-1h-1zm-123 1v.5h1v-1h-1zm-48 1v.5h1v-1h-1zm168 0v.5h1v-1h-1zm37 0v.5h1v-1h-1zm-136 1v.5h1v-1h-1zm24 0v.5h1v-1h-1zm-44 2v.5h1v-1h-1zm21 0v.5h1v-1h-1zm93 0v.5h1v-1h-1zm-162 1v.5h1v-1h-1zm201 0v.5h1v-1h-1zm-131 1v.5h1v-1h-1zm19 0v.5h1v-1h-1zm-40 1v.5h1v-1h-1zm-48 1v.5h1v-1h-1zm87 0v.5h1v-1h-1zm-38 1v.5h1v-1h-1zm102 0v.5h1v-1h-1zm46 0v.5h1v-1h-1zm-147 2v.5h1v-1h-1zm96 0v.5h1v-1h-1zm-71 3 2.3 2.5h1l-2.3-2.5-2.3-2.5h-1zm33-2v.5h1v-1h-1zm4 0v.5h1v-1h-1zm-61 1v.5h1v-1h-1zm33 0v.5h1v-1h-1zm32.3.2.7.6.7-.6.6-.7h-2.6zm21.7-.2v.5h1v-1h-1zm56 0v.5h1v-1h-1zm-192 1v.5h1v-1h-1zm123.8.2 2.2.4 2.3-.4 2.2-.4h-9zm-73.8.8v.5h1v-1h-1zm31 0v.5h1v-1h-1zm20.9 1.2-1.4 1.8 1.8-1.4 1.7-1.3v-.8h-.8zm-100.9.8v.5h1v-1h-1zm188 0v.5h1v-1h-1zm-137 1v.5h1v-1h-1zm26 0v.5h1v-1h-1zm20 3v.5h1v-1h-1zm87.4.7-.7 1.1 1.1-.7 1.2-.7v-.9h-.9zm-182.4.3v.5h1v-1h-1zm52.5.5.6 1h1l-.6-1-.6-1h-1zM56 241.5v.5h1v-1h-1zm92 0v.5h1v-1h-1zm-91 2v.5h1v-1h-1zm89 1v.5h1v-1h-1zm-88 1v.5h1v-1h-1zm172.9 1.2-1.4 1.8 1.8-1.4 1.7-1.3v-.8h-.8zm-85.9-.2v.5h1v-1h-1zm-29.5 1.5.6 1h1l-.6-1-.6-1h-1zm28.5.5v.5h1v-1h-1zm-83 2v.5h1v-1h-1zm82 0v.5h1v-1h-1zm-80 3v.5h1v-1h-1zm79 0v.5h1v-1h-1zm-17 1v.5h1v-1h-1zm2 1v.5h1v-1h-1zm-62 1v.5h1v-1h-1zm64 0v.5h1v-1h-1zm12 1v.5h1v-1h-1zm-1.7 2.2.7.6.7-.6.6-.7h-2.6zM68.5 261l.6 1h1l-.6-1-.6-1h-1zm147.4.7-1.4 1.8 1.8-1.4 1.7-1.3v-.8h-.8zm-6.9 5.8v.5h1v-1h-1zm-4 3v.5h1v-1h-1zm-4 3v.5h1v-1h-1zm-119 1v.5h1v-1h-1zm116 1v.5h1v-1h-1zm-112 2v.5h1v-1h-1zm109 0v.5h1v-1h-1zm-3 2v.5h1v-1h-1zm-2 1v.5h1v-1h-1zm-95 3v.5h1v-1h-1zm2 1v.5h1v-1h-1zm8 4v.5h1v-1h-1zm69 0v.5h1v-1h-1zm-3 1v.5h1v-1h-1zm-61 1v.5h1v-1h-1zm3 1v.5h1v-1h-1zm3 1v.5h1v-1h-1zm46 0v.5h1v-1h-1zm-42 1v.5h1v-1h-1zm38 0v.5h1v-1h-1zm-33 1v.5h1v-1h-1zm27 0v.5h1v-1h-1zm-18.2 1.2 1.3.5.6-.6.6-.6-1.9.1-1.9.1zm9 0 1.3.5.6-.6.6-.6-1.9.1-1.9.1z"/><path fill="#DB6D33" stroke="#DB6D33" stroke-width="1.1" d="M203 27.5v.5h1v-1h-1zm6 1v.5h1v-1h-1zm-41 1v.5h1v-1h-1zm49 1v.5h1v-1h-1zm-56 1v.5h1v-1h-1zm-9 3v.5h1v-1h-1zm-5 2v.5h1v-1h-1zm91 5v.5h1v-1h-1zm-105 2v.5h1v-1h-1zm-5 3v.5h1v-1h-1zm-9 6v.5h1v-1h-1zm133 4v.5h1v-1h-1zm3 5v.5h1v-1h-1zm1 2v.5h1v-1h-1zm-153 2v.5h1v-1h-1zm154 0v.5h1v-1h-1zm2 5v.5h1v-1h-1zm1 3v.5h1v-1h-1zm-169 4v.5h1v-1h-1zm170 0v.5h1v-1h-1zm-92 11v.5h1v-1h-1zm27 0v.5h1v-1h-1zm7 1v.5h1v-1h-1zm-46 1v.5h1v-1h-1zm50 0v.5h1v-1h-1zm-54 1v.5h1v-1h-1zm-78 6v.5h1v-1h-1zm149 0v.5h1v-1h-1zm5.5 4.5.6 1h1l-.6-1-.6-1h-1zm-103.5.5v.5h1v-1h-1zm136 2v.5h1v-1h-1zm-141 1v.5h1v-1h-1zm-52 1v.5h1v-1h-1zm49 1v.5h1v-1h-1zm143 2v.5h1v-1h-1zm-147 1v.5h1v-1h-1zm-48 1v.5h1v-1h-1zm194 2v.5h1v-1h-1zm-155.6 5.7-1.9 2.3 2.3-1.9 2.2-1.9v-.7h-.7zm153.6.3v.5h1v-1h-1zm-136 5v.5h1v-1h-1zm134 0v.5h1v-1h-1zm-1 2v.5h1v-1h-1zm-158 1v.5h1v-1h-1zm157 1v.5h1v-1h-1zm-33 2v.5h1v-1h-1zm32 0v.5h1v-1h-1zm-197 1v.5h1v-1h-1zm38 0v.5h1v-1h-1zm23 2v.5h1v-1h-1zm97 1v.5h1v-1h-1zm-2 1v.5h1v-1h-1zm-9 4v.5h1v-1h-1zm-116 3v.5h1v-1h-1zm208 0v.5h1v-1h-1zm-104 1v.5h1v-1h-1zm-105 1v.5h1v-1h-1zm91 2v.5h1v-1h-1zm-12.7 1.2.7.6.7-.6.6-.7h-2.6zm-114.3.8v.5h1v-1h-1zm237 1v.5h1v-1h-1zm-49.6 2.7-.7 1.1 1.1-.7 1.2-.7v-.9h-.9zM115 153.5v.5h1v-1h-1zm117.4 3.7-.7 1.1 1.1-.7 1.2-.7v-.9h-.9zM117 159.5v.5h1v-1h-1zm-70 1v.5h1v-1h-1zm33 1v.5h1v-1h-1zm194.4.7-.7 1.1 1.1-.7 1.2-.7v-.9h-.9zm28.6-.7v.5h1v-1h-1zm-78 2v.5h1v-1h-1zm-4 3v.5h1v-1h-1zm76 0v.5h1v-1h-1zM123.5 169l.6 1h1l-.6-1-.6-1h-1zm-44.3 2.5v3l.5-1.8.5-1.7-.5-1.3-.5-1.2zm129.8 3v.5h1v-1h-1zm49.4 4.7-.7 1.1 1.1-.7 1.2-.7v-.9h-.9zm26.6-.7v.5h1v-1h-1zm-205 2v.5h1v-1h-1zm38 1v.5h1v-1h-1zm77 1v.5h1v-1h-1zm-150.9 4.1.1 1.9.5-1.3.5-1.3-.6-.6-.6-.6zm233.9-.1v.5h1v-1h-1zm-195 2v.5h1v-1h-1zm-38.8 3v3l.5-1.8.5-1.7-.5-1.3-.5-1.2zm137.8-2v.5h1v-1h-1zm92 2v.5h1v-1h-1zm-101 3v.5h1v-1h-1zM96 204v1.3l.7-.6.6-.7-.6-.7-.7-.6zm63-.5v.5h1v-1h-1zm74 1v.5h1v-1h-1zm-78 2v.5h1v-1h-1zM96 211v1.3l.7-.6.6-.7-.6-.7-.7-.6zm163 .5v.5h1v-1h-1zm-213 1v.5h1v-1h-1zm176 1v.5h1v-1h-1zm-125 4v.5h1v-1h-1zm45 2v.5h1v-1h-1zm-44 2v.5h1v-1h-1zm110 1v.5h1v-1h-1zm43 0v.5h1v-1h-1zm-45 1v.5h1v-1h-1zm-2 1v.5h1v-1h-1zm-104 2v.5h1v-1h-1zm148 0v.5h1v-1h-1zm-90 2v.5h1v-1h-1zm3 0v.5h1v-1h-1zm-59 2v.5h1v-1h-1zm21 0v.5h1v-1h-1zm47 0v.5h1v-1h-1zm75 0v.5h1v-1h-1zm-119 3v.5h1v-1h-1zm27 0v.5h1v-1h-1zm-6 8v.5h1v-1h-1zm86 4v.5h1v-1h-1zm-117 2v.5h1v-1h-1zm7 5v.5h1v-1h-1zm-61 1v.5h1v-1h-1zm2 3v.5h1v-1h-1zm76 1v.5h1v-1h-1zm-3 1v.5h1v-1h-1zm79 4v.5h1v-1h-1zm-11 9v.5h1v-1h-1zm-116 9v.5h1v-1h-1zm3 2v.5h1v-1h-1zm96 0v.5h1v-1h-1zm-10 5v.5h1v-1h-1zm-70 3v.5h1v-1h-1zm13 4v.5h1v-1h-1zm29 1v.5h1v-1h-1z"/><path fill="#DBDB99" stroke="#DBDB99" stroke-width="1.1" d="M178 28.5v.5h1v-1h-1zm27 0v.5h1v-1h-1zm5 1v.5h1v-1h-1zm4 1v.5h1v-1h-1zm-54 2v.5h1v-1h-1zm65 2v.5h1v-1h-1zm2 1v.5h1v-1h-1zm-78 1v.5h1v-1h-1zm-16 8v.5h1v-1h-1zm-14 9v.5h1v-1h-1zm-4 3v.5h1v-1h-1zm-5 4v.5h1v-1h-1zm-12 11L93.6 76h1l4.4-4.5 4.4-4.5h-1zm163 12v.5h1v-1h-1zm-98 5v.5h1v-1h-1zm-81 1v.5h1v-1h-1zm76 0v.5h1v-1h-1zm52 1v.5h1v-1h-1zm-131 3v.5h1v-1h-1zm62 1v.5h1v-1h-1zm83 2v.5h1v-1h-1zm-90 1v.5h1v-1h-1zm94 2v.5h1v-1h-1zm-100 1v.5h1v-1h-1zm-56 3v.5h1v-1h-1zm160 0v.5h1v-1h-1zm-111 1v.5h1v-1h-1zm-3 2v.5h1v-1h-1zm-49 2v.5h1v-1h-1zm191 0v.5h1v-1h-1zm-25 1v.5h1v-1h-1zm-169 4v.5h1v-1h-1zm43 0v.5h1v-1h-1zm-44 2v.5h1v-1h-1zm170 0v.5h1v-1h-1zm-103 2v.5h1v-1h-1zm-2 1v.5h1v-1h-1zm104 0v.5h1v-1h-1zm-109.1 4.2-1.4 1.8 1.8-1.4 1.7-1.3v-.8h-.8zm131.1-1.2v.5h1v-1h-1zm-156 1v.5h1v-1h-1zm21 5v.5h1v-1h-1zm-26 1v.5h1v-1h-1zm-37 1v.5h1v-1h-1zm163 2v.5h1v-1h-1zm-129 1v.5h1v-1h-1zm26 1v.5h1v-1h-1zm132 0v.5h1v-1h-1zm60 0v.5h1v-1h-1zm-2 1v.5h1v-1h-1zm-218 1v.5h1v-1h-1zm-35 1v.5h1v-1h-1zm62 0v.5h1v-1h-1zm130 2v.5h1v-1h-1zm-193 1v.5h1v-1h-1zm85.5.5.6 1h1l-.6-1-.6-1h-1zm65.5-.5v.5h1v-1h-1zm-89 1v.5h1v-1h-1zm183 0v.5h1v-1h-1zm-99 1v.5h1v-1h-1zm-3 1v.5h1v-1h-1zm-3 1v.5h1v-1h-1zm100 1v.5h1v-1h-1zm-242 1v.5h1v-1h-1zm96 0v.5h1v-1h-1zm3 1v.5h1v-1h-1zm31 0v.5h1v-1h-1zm-27 1v.5h1v-1h-1zm-104 1v.5h1v-1h-1zm-1 4v.5h1v-1h-1zm66 0v.5h1v-1h-1zm-35 1v.5h1v-1h-1zm200.9 2.2-2.4 2.8 2.8-2.4 2.7-2.4v-.7h-.7zm-232.9.8v.5h1v-1h-1zm31 0v.5h1v-1h-1zm38 3v.5h1v-1h-1zm-39 1v.5h1v-1h-1zm40 1v.5h1v-1h-1zm179 3v.5h1v-1h-1zm-77 1v.5h1v-1h-1zm-174 1v.5h1v-1h-1zm31 1v.5h1v-1h-1zm-32 6v.5h1v-1h-1zm163 0v.5h1v-1h-1zM78 175v1.3l.7-.6.6-.7-.6-.7-.7-.6zm184.9.7-1.4 1.8 1.8-1.4 1.7-1.3v-.8h-.8zm-139.9-.2v.5h1v-1h-1zm81 1v.5h1v-1h-1zm77 5v.5h1v-1h-1zm-164 5v.5h1v-1h-1zm67 1v.5h1v-1h-1zm92 0v.5h1v-1h-1zm-160 2v.5h1v-1h-1zm156 3v.5h1v-1h-1zm-157 1v.5h1v-1h-1zm53 3v.5h1v-1h-1zm-122 9v.5h1v-1h-1zm186 1v.5h1v-1h-1zm28 2v.5h1v-1h-1zm-113.1 4.2-2.4 2.8 2.8-2.4 2.7-2.4v-.7h-.7zM47 212v1.3l.7-.6.6-.7-.6-.7-.7-.6zm68-.5v.5h1v-1h-1zm142 1v.5h1v-1h-1zm-162 1v.5h1v-1h-1zm127 1v.5h1v-1h-1zm-106 1v.5h1v-1h-1zm-68 2v.5h1v-1h-1zm48 1v.5h1v-1h-1zm21 0v.5h1v-1h-1zm135 1v.5h1v-1h-1zm-112 1v.5h1v-1h-1zm73 0v.5h1v-1h-1zm-164 1v.5h1v-1h-1zm200 2v.5h1v-1h-1zm-128 3v.5h1v-1h-1zm15 0v.5h1v-1h-1zm63 1v.5h1v-1h-1zm47 0v.5h1v-1h-1zm-195 1v.5h1v-1h-1zm84 0v.5h1v-1h-1zm58 1v.5h1v-1h-1zm-36.6 1.7-.7 1.1 1.1-.7 1.2-.7v-.9h-.9zm32.6-.7v.5h1v-1h-1zm-16 1v.5h1v-1h-1zm9 0v.5h1v-1h-1zm-50 3v.5h1v-1h-1zm108 1v.5h1v-1h-1zm-186 1v.5h1v-1h-1zm97 1v.5h1v-1h-1zm85 3v.5h1v-1h-1zm-89 3v.5h1v-1h-1zm-87 5v.5h1v-1h-1zm168.4.7-.7 1.1 1.1-.7 1.2-.7v-.9h-.9zM120 251.5v.5h1v-1h-1zm23 0v.5h1v-1h-1zm-20 2v.5h1v-1h-1zm-57 4v.5h1v-1h-1zm68 1v.5h1v-1h-1zm7 0v.5h1v-1h-1zm-3 1v.5h1v-1h-1zm80 0v.5h1v-1h-1zm-8 7v.5h1v-1h-1zm-129 7v.5h1v-1h-1zm8 6v.5h1v-1h-1zm3 2v.5h1v-1h-1zm7 4v.5h1v-1h-1zm2 1v.5h1v-1h-1zm2 1v.5h1v-1h-1zm73 0v.5h1v-1h-1zm-8 3v.5h1v-1h-1zm-3 1v.5h1v-1h-1zm-44 2v.5h1v-1h-1zm36 0v.5h1v-1h-1zm-31 1v.5h1v-1h-1zm11.3 1.2 1.7.4 1.8-.4 1.7-.5h-7z"/><path fill="#DBDBCC" stroke="#DBDBCC" stroke-width="1.1" d="m180.8 28.7 2.2.4 1.8-.4 1.7-.5-4 .1h-4zm19 0 2.2.4 1.8-.4 1.7-.5-4 .1h-4zm-26 1 1.2.5 1.3-.5 1.2-.5h-5zm34 0 1.3.5.6-.6.6-.6-1.9.1-1.9.1zm-39 1 1.3.5.6-.6.6-.6-1.9.1-1.9.1zm43.5 0 .7.6.7-.6.6-.7h-2.6zm-47.5 1 1.3.5.6-.6.6-.6-1.9.1-1.9.1zm51.5 0 .7.6.7-.6.6-.7h-2.6zm-55 1 .7.6.7-.6.6-.7h-2.6zm58.7.3 1.5 1h2l-1.5-1-1.5-1h-2zm-61.7.7.7.6.7-.6.6-.7h-2.6zm-3 1 .7.6.7-.6.6-.7h-2.6zm68.7-.2v.5h1v-1h-1zm-71.7 1.2.7.6.7-.6.6-.7h-2.6zm73.7-.2v.5h1v-1h-1zm-76 1v.5h1v-1h-1zm78 0v.5h1v-1h-1zM146 38l-1.5 1h2l1.5-1 1.5-1h-2zm84-.5v.5h1v-1h-1zm2.5 1.5.6 1h1l-.6-1-.6-1h-1zm-89.5.5v.5h1v-1h-1zm-2 1v.5h1v-1h-1zm94.5.5.6 1h1l-.6-1-.6-1h-1zm-96.5.5v.5h1v-1h-1zm-2 1v.5h1v-1h-1zm-2.6 1.7-.7 1.1 1.1-.7 1.2-.7V43h-.9zm108.6 3 4.4 4.8h.6v-.6l-4.7-4.4-4.8-4.5zm-111-1.7v.5h1v-1h-1zm-3.6 2.1-1.9 1.5 2.3-1.1 2.2-1.1V46h-.6zm-4 2.6-.7 1.1 1.1-.7 1.2-.7V49h-.9zm-3.5 2.5-1.4 1.8 1.8-1.4 1.7-1.3V51h-.8zm-4 3-1.4 1.8 1.8-1.4 1.7-1.3V54h-.8zm132.6-.7.6 1h1l-.6-1-.6-1h-1zm-136.6 3.7-1.4 1.8 1.8-1.4 1.7-1.3V57h-.8zm138.6-.7.6 1h1l-.6-1-.6-1h-1zm1.5 2.5v.5h1v-1h-1zm-146.6 3.7-2.9 3.3 3.3-2.9 3.2-3V61h-.6zM254 62.5v.5h1v-1h-1zm1 2v.5h1v-1h-1zm1 2v.5h1v-1h-1zm1 2.5v1.3l.7-.6.6-.7-.6-.7-.7-.6zm-156 .5v.5h1v-1h-1zm157 2v.5h1v-1h-1zm-161 2v.5h1v-1h-1zM259 75v1.3l.7-.6.6-.7-.6-.7-.7-.6zM90.9 79.7l-3.4 3.8-2.4 2.7-2.4 2.8h.9l5.8-6.5 5.7-6.5h-.7zM260 79v1.3l.7-.6.6-.7-.6-.7-.7-.6zm1.1 6.6.1 1.9.5-1.3.5-1.3-.6-.6-.6-.6zm-81.3 1.1 3.2.4 3.3-.4 3.2-.4h-13zm-12 1 1.3.5.6-.6.6-.6-1.9.1-1.9.1zm29 0 1.3.5.6-.6.6-.6-1.9.1-1.9.1zm-35.5 1 .7.6.7-.6.6-.7h-2.6zm41 0 .7.6.7-.6.6-.7h-2.6zm-46 1 .7.6.7-.6.6-.7h-2.6zm51 0 .7.6.7-.6.6-.7h-2.6zm-126.4 2-1.4 1.8 1.8-1.4 1.7-1.3V90h-.8zm71.4-1 .7.6.7-.6.6-.7h-2.6zm58.7-.2v.5h1v-1h-1zm-62 1v.5h1v-1h-1zm65 0v.5h1v-1h-1zm-68 1v.5h1v-1h-1zm70.3.2.7.6.7-.6.6-.7h-2.6zm-73.3.8v.5h1v-1h-1zm76 0v.5h1v-1h-1zM77 97l-2.1 3h1l2.1-3 2.1-3h-1zm63-2.5v.5h1v-1h-1zm81 0v.5h1v-1h-1zm-83 1v.5h1v-1h-1zm85 0v.5h1v-1h-1zm-87.7 1.2.7.6.7-.6.6-.7h-2.6zm-2.3.8v.5h1v-1h-1zm93.5.5.6 1h1l-.6-1-.6-1h-1zm-95.5.5v.5h1v-1h-1zm-2 1v.5h1v-1h-1zm-2.6 1.7-.7 1.1 1.1-.7 1.2-.7v-.9h-.9zm104.1-.2.6 1h1l-.6-1-.6-1h-1zm30.6.6.1 1.9.5-1.3.5-1.3-.6-.6-.6-.6zm-187.7.6-.7 1.1 1.1-.7 1.2-.7v-.9h-.9zm50.6.3v.5h1v-1h-1zm-2 1v.5h1v-1h-1zM71 106l-1.1 2h1l1.1-2 1.1-2h-1zm163.1 0 1.2 2.5.3.4.4.4v-1.9l-1.6-2-1.5-1.9zm-115.1-.5v.5h1v-1h-1zm141 1.5v1.3l.7-.6.6-.7-.6-.7-.7-.6zm-144.6 1.2-.7 1.1 1.1-.7 1.2-.7v-.9h-.9zM68 111l-1.1 2h1l1.1-2 1.1-2h-1zm42.9.7-1.4 1.8 1.8-1.4 1.7-1.3v-.8h-.8zm148.2-.1.1 1.9.5-1.3.5-1.3-.6-.6-.6-.6zm-23 1 .1 1.9.5-1.3.5-1.3-.6-.6-.6-.6zM66 114.5v.5h1v-1h-1zm192 1v.5h1v-1h-1zm-196.1 6.6-3 6.1.3.4.4.3 3.2-6.4L66 116h-1zM235 117v1.3l.7-.6.6-.7-.6-.7-.7-.6zm-131 .5v.5h1v-1h-1zm29.3 4.5v5.5l.4-2.8.4-2.7-.4-2.8-.4-2.7zm-2.3-3.5v.5h1v-1h-1zm126 0v.5h1v-1h-1zm-128.6 1.7-.7 1.1 1.1-.7 1.2-.7v-.9h-.9zm101.7 4.1-4.5 5.2 3.8-3.5 3.8-3.5.9-1.8 1-1.7h-.3l-.3.1zm25.9-3.8v.5h1v-1h-1zm-158.6 4.7-1.9 2.3 2.3-1.9 2.2-1.9v-.7h-.7zm157.6-1.7v.5h1v-1h-1zm-132.1 2.2-1.4 1.8 1.8-1.4 1.7-1.3v-.8h-.8zm131.1-.2v.5h1v-1h-1zm-1 2v.5h1v-1h-1zm-133 2.6-1.2 2.1.5.4.4.4 1.1-2.5 1.2-2.5h-.9zm-26.6.1-.7 1.1 1.1-.7 1.2-.7v-.9h-.9zm130 0-.7 1.1 1.1-.7 1.2-.7v-.9h-.9zm28.6-.7v.5h1v-1h-1zm-194 1v.5h1v-1h-1zm76 .5v1.3l.7-.6.6-.7-.6-.7-.7-.6zm117 .5v.5h1v-1h-1zm-194.4 2-.6 1.7v.6l.1.7 1-1.8 1.1-1.9-.5-.4-.5-.5zm163.4-1v.5h1v-1h-1zm-129.6 1.7-.7 1.1 1.1-.7 1.2-.7v-.9h-.9zm44.6-.7v.5h1v-1h-1zm79 2-4.5 2.4.8.1h.8l3.9-2 4-2v-1h-.2l-.3.1zm97-2v.5h1v-1h-1zm-193 1v.5h1v-1h-1zm131 0v.5h1v-1h-1zm60 0v.5h1v-1h-1zm-173 1v.5h1v-1h-1zm171 0v.5h1v-1h-1zm-218 1v.5h1v-1h-1zm159 0v.5h1v-1h-1zm56.4.7-.7 1.1 1.1-.7 1.2-.7v-.9h-.9zM55 138v1.3l.7-.6.6-.7-.6-.7-.7-.6zm62.1.6.1 1.9.5-1.3.5-1.3-.6-.6-.6-.6zm20.4-.6.6 1h1l-.6-1-.6-1h-1zm-50.1 1.2-.7 1.1 1.1-.7 1.2-.7v-.9h-.9zm120.6-.7v.5h1v-1h-1zm93.4.7-.7 1.1 1.1-.7 1.2-.7v-.9h-.9zm-95.4.3v.5h1v-1h-1zm39.4.7-.7 1.1 1.1-.7 1.2-.7v-.9h-.9zm-191.4.3v.5h1v-1h-1zm149.3.2.7.6.7-.6.6-.7h-2.6zm-117.3.8v.5h1v-1h-1zm30.3 5v6l.4-3.3.4-3.2-.4-2.8-.4-2.7zm24.7-5.1v.4l1.8 1.3 1.7 1.4-1.4-1.8-1.3-1.7h-.8zm60 .1v.5h1v-1h-1zm95.9 1.2-1.4 1.8 1.8-1.4 1.7-1.3v-.8h-.8zm-243.8.9.1 1.9.5-1.3.5-1.3-.6-.6-.6-.6zm145.2-.9.7.6.7-.6.6-.7h-2.6zm44.6 1-1.4 1.8 1.8-1.4 1.7-1.3v-.8h-.8zM85 143.5v.5h1v-1h-1zm110.3.2.7.6.7-.6.6-.7h-2.6zm-50.3.8v.5h1v-1h-1zm46.3.2.7.6.7-.6.6-.7h-2.6zm-107.3.8v.5h1v-1h-1zm63 0v.5h1v-1h-1zm40.8.2 1.3.5.6-.6.6-.6-1.9.1-1.9.1zm101.7 3.5-4 4.3 4.3-4 4.2-3.9v-.6h-.6zM52 147v1.3l.7-.6.6-.7-.6-.7-.7-.6zm97.3-.3.7.6.7-.6.6-.7h-2.6zm34.5 0 1.3.5.6-.6.6-.6-1.9.1-1.9.1zm54.6 2.5-2.9 3.3 3.3-2.9 3.2-3v-.6h-.6zM83 147.5v.5h1v-1h-1zm69.8.2 1.3.5.6-.6.6-.6-1.9.1-1.9.1zm25 0 1.2.5 1.3-.5 1.2-.5h-5zm-16.5 1 4.8.4 4.2-.4 4.2-.4-9 .1h-9zM51 150v1.3l.7-.6.6-.7-.6-.7-.7-.6zm30.6.5-.6 1.7v.6l.1.7 1-1.8 1.1-1.9-.5-.4-.5-.5zM50 154v1.3l.7-.6.6-.7-.6-.7-.7-.6zm67.1 1.6.1 1.9.5-1.3.5-1.3-.6-.6-.6-.6zm193.9-1.1v.5h1v-1h-1zm-231 1v.5h1v-1h-1zm228 1v.5h1v-1h-1zm-258.9 2.1.1 1.9.5-1.3.5-1.3-.6-.6-.6-.6zm178.8 1.1-2.4 2.8 2.8-2.4 2.7-2.4v-.7h-.7zm77-1-1.4 1.8 1.8-1.4 1.7-1.3v-.8h-.8zM79 159v1.3l.7-.6.6-.7-.6-.7-.7-.6zm39-.5v.5h1v-1h-1zm1 2v.5h1v-1h-1zm152.5 6.7-7 7.3 7.3-7 7.2-6.9v-.6h-.6zm28.9-5-1.9 2.3 2.3-1.9 2.2-1.9v-.7h-.7zm-252.2.8v2.5l.5-1.3.5-1.2-.5-1.3-.5-1.2zm30 1.5v3l.5-1.8.5-1.7-.5-1.3-.5-1.2zm41.8-2v.5h1v-1h-1zm102.4 1.7-.7 1.1 1.1-.7 1.2-.7v-.9h-.9zm-98.5 3 3.4 3.8-1.8 2.2-1.9 2.3 2.4-2.3 2.5-2.2-4-3.8-4-3.7zm94.5 0-.7 1.1 1.1-.7 1.2-.7v-.9h-.9zm71.1 5-6 6.3 6.3-6 6.2-5.9v-.6h-.6zM47.2 169v2.5l.5-1.3.5-1.2-.5-1.3-.5-1.2zm168.2.2-.7 1.1 1.1-.7 1.2-.7v-.9h-.9zm-3 2-.7 1.1 1.1-.7 1.2-.7v-.9h-.9zm-2.4 1.3v.5h1v-1h-1zm-163.7 7v6l.4-3.3.4-3.2-.4-2.8-.4-2.7zm160.7-5v.5h1v-1h-1zm-2 1v.5h1v-1h-1zm-126.9 2.1.1 1.9.5-1.3.5-1.3-.6-.6-.6-.6zm44.2-.4-1 1.3-.7 1.2-.7 1.3h.9l1.6-2.5 1.6-2.5h-.8zm80.1 0-.7 1.1 1.1-.7 1.2-.7v-.9h-.9zm60.6-.7v.5h1v-1h-1zm-63 2v.5h1v-1h-1zm47.5 13.7-14 14.3 14.3-14 14.2-14v-.5h-.5zM198 179.5v.5h1v-1h-1zM79 182v1.3l.7-.6.6-.7-.6-.7-.7-.6zm114.5 0-.6 1 1.5-.6 1.6-.6v-.8h-1.9zm-74.5.5v.5h1v-1h-1zm159.4 1.7-1.9 2.3 2.3-1.9 2.2-1.9v-.7h-.7zm-87.4-.7v.5h1v-1h-1zM80 185v1.3l.7-.6.6-.7-.6-.7-.7-.6zm38 0v1.3l.7-.6.6-.7-.6-.7-.7-.6zm71-.5v.5h1v-1h-1zm-2 1v.5h1v-1h-1zm-2 1v.5h1v-1h-1zm-104 1v.5h1v-1h-1zm36 .5v1.3l.7-.6.6-.7-.6-.7-.7-.6zm63.5 1-.6 1 1.5-.6 1.6-.6v-.8h-1.9zm93.4.7-1.4 1.8 1.8-1.4 1.7-1.3v-.8h-.8zM82 189.5v.5h1v-1h-1zm34.1 2.1.1 1.9.5-1.3.5-1.3-.6-.6-.6-.6zm61.9-1.1v.5h1v-1h-1zm-2 1v.5h1v-1h-1zm-92 1v.5h1v-1h-1zm89.4.7-.7 1.1 1.1-.7 1.2-.7v-.9h-.9zm96.5 1.5-1.4 1.8 1.8-1.4 1.7-1.3v-.8h-.8zm-223.6 4.8v6l.4-3.3.4-3.2-.4-2.8-.4-2.7zm68.9-3v3l.5-1.8.5-1.7-.5-1.3-.5-1.2zm55.8-2v.5h1v-1h-1zm-82 4 3.4 3.5h1l-3.4-3.5-3.4-3.5h-1zm80-3v.5h1v-1h-1zm-2.6 1.7-.7 1.1 1.1-.7 1.2-.7v-.9h-.9zm101 1-.7 1.1 1.1-.7 1.2-.7v-.9h-.9zm-104 1-.7 1.1 1.1-.7 1.2-.7v-.9h-.9zm-3 2-.7 1.1 1.1-.7 1.2-.7v-.9h-.9zm104 1-.7 1.1 1.1-.7 1.2-.7v-.9h-.9zm-108 2-.7 1.1 1.1-.7 1.2-.7v-.9h-.9zm104.5 2.5-1.4 1.8 1.8-1.4 1.7-1.3v-.8h-.8zm-145.7 1.8v3l.5-1.8.5-1.7-.5-1.3-.5-1.2zm36.2-.3-1.9 2.3 2.3-1.9 2.2-1.9v-.7h-.7zm78 1-1.9 2.3 2.3-1.9 2.2-1.9v-.7h-.7zm-182.3.4.1 1.9.5-1.3.5-1.3-.6-.6-.6-.6zm211.3.6-.7 1.1 1.1-.7 1.2-.7v-.9h-.9zm-33.5 2.5-1.4 1.8 1.8-1.4 1.7-1.3v-.8h-.8zM116 214v1.3l.7-.6.6-.7-.6-.7-.7-.6zm139.4.2-.7 1.1 1.1-.7 1.2-.7v-.9h-.9zm-207.3 1.4.1 1.9.5-1.3.5-1.3-.6-.6-.6-.6zM95 215v1.3l.7-.6.6-.7-.6-.7-.7-.6zm47.4 2.2-1.9 2.3 2.3-1.9 2.2-1.9v-.7h-.7zm78-1-.7 1.1 1.1-.7 1.2-.7v-.9h-.9zM117 217v1.3l.7-.6.6-.7-.6-.7-.7-.6zm136.4.2-.7 1.1 1.1-.7 1.2-.7v-.9h-.9zm-36 1-.7 1.1 1.1-.7 1.2-.7v-.9h-.9zm-168.3 1.4.1 1.9.5-1.3.5-1.3-.6-.6-.6-.6zm46.9.4v1.3l.7-.6.6-.7-.6-.7-.7-.6zm22 0v1.3l.7-.6.6-.7-.6-.7-.7-.6zm96.4.2-.7 1.1 1.1-.7 1.2-.7v-.9h-.9zm36 1-.7 1.1 1.1-.7 1.2-.7v-.9h-.9zm-112 1-.7 1.1 1.1-.7 1.2-.7v-.9h-.9zm73.6-.7v.5h1v-1h-1zm-161.9 2.1.1 1.9.5-1.3.5-1.3-.6-.6-.6-.6zm46.9-1.1v.5h1v-1h-1zm23 1.5 1.1 2h1l-1.1-2-1.1-2h-1zm86 .5-4.5 2.4.8.1h.8l3.9-2 4-2v-1h-.2l-.3.1zm-69 0v.5h1v-1h-1zm110.4.7-.7 1.1 1.1-.7 1.2-.7v-.9h-.9zm-149.4.3v.5h1v-1h-1zM51 227v1.3l.7-.6.6-.7-.6-.7-.7-.6zm48 .5v.5h1v-1h-1zm23-.1v.4l1.8 1.3 1.7 1.4-1.4-1.8-1.3-1.7h-.8zm13 .1v.5h1v-1h-1zm65 0v.5h1v-1h-1zm-2.7 1.2.7.6.7-.6.6-.7h-2.6zm47.1.5-.7 1.1 1.1-.7 1.2-.7v-.9h-.9zM52 230v1.3l.7-.6.6-.7-.6-.7-.7-.6zm48-.5v.5h1v-1h-1zm34 0v.5h1v-1h-1zm25.8.2 1.3.5.6-.6.6-.6-1.9.1-1.9.1zm34.5 0 .7.6.7-.6.6-.7h-2.6zm-30.5 1 1.3.5.6-.6.6-.6-1.9.1-1.9.1zm26.5 0 .7.6.7-.6.6-.7h-2.6zm-89.3.8v.5h1v-1h-1zm32 0v.5h1v-1h-1zm36.3.2 1.7.5 1.3-.5 1.2-.5h-6zm15 0 1.7.5 1.3-.5 1.2-.5h-6zm57.6 1-1.4 1.8 1.8-1.4 1.7-1.3v-.8h-.8zM53 233v1.3l.7-.6.6-.7-.6-.7-.7-.6zm74-.6v.4l1.8 1.3 1.7 1.4-1.4-1.8-1.3-1.7h-.8zm5 1.1v.5h1v-1h-1zm21.4 1.7-1.9 2.3 2.3-1.9 2.2-1.9v-.7h-.7zm-50.4-.7v.5h1v-1h-1zm-49 1v.5h1v-1h-1zm77 0v.5h1v-1h-1zm-27 .9v.4l1.8 1.3 1.7 1.4-1.4-1.8-1.3-1.7h-.8zm134.4.8-.7 1.1 1.1-.7 1.2-.7v-.9h-.9zm-183.3.3v1l1.4 2.5 1.4 2.5v-2l-1.4-2.5-1.4-2.5zm95.2 1.7-1 1.3-.7 1.2-.7 1.3h.9l1.6-2.5 1.6-2.5h-.8zm-42.3 2.1v.3l3.3 3 3.2 2.9-2.9-3.3-3-3.2h-.6zm125.4 1.9-1.9 2.3 2.3-1.9 2.2-1.9v-.7h-.7zM59 246l1.1 2h1l-1.1-2-1.1-2h-1zm86.5 1.1-1.6 3.1.3.4.4.4 1.7-3.5 1.7-3.5h-.9zM61 249.5v.5h1v-1h-1zm56.5.5.6 1h1l-.6-1-.6-1h-1zm105.5 4.5-4.4 4.5h1l4.4-4.5 4.4-4.5h-1zM62.5 252l.6 1h1l-.6-1-.6-1h-1zm59 1 .6 1h1l-.6-1-.6-1h-1zm21.5-.5v.5h1v-1h-1zm-79 1.9v.4l1.8 1.3 1.7 1.4-1.4-1.8-1.3-1.7H64zm60 .1v.5h1v-1h-1zm18.1 1.1.1 1.9.5-1.3.5-1.3-.6-.6-.6-.6zm-16.1-.1v.5h1v-1h-1zm2 1v.5h1v-1h-1zm3 1.5 1.5 1h2l-1.5-1-1.5-1h-2zm-64 .4v.4l1.8 1.3 1.7 1.4-1.4-1.8-1.3-1.7H67zm69.3 1.3.7.6.7-.6.6-.7h-2.6zm4.7-.2v.5h1v-1h-1zm-66 8 5.4 5.5h1l-5.4-5.5-5.4-5.5h-1zm137.4-3.3-1.9 2.3 2.3-1.9 2.2-1.9v-.7h-.7zm-5.5 4.5-1.4 1.8 1.8-1.4 1.7-1.3v-.8h-.8zm-4.5 3.5-.7 1.1 1.1-.7 1.2-.7v-.9h-.9zM83 274.4v.4l1.8 1.3 1.7 1.4-1.4-1.8-1.3-1.7H83zm116 .1v.5h1v-1h-1zm-3 2v.5h1v-1h-1zM87.5 278l.6 1h1l-.6-1-.6-1h-1zm105.9.2-.7 1.1 1.1-.7 1.2-.7v-.9h-.9zM90.5 280l.6 1h1l-.6-1-.6-1h-1zm100.5-.5v.5h1v-1h-1zm-2.6 1.7-.7 1.1 1.1-.7 1.2-.7v-.9h-.9zm-94.9.8.6 1h1l-.6-1-.6-1h-1zm92.5.5v.5h1v-1h-1zm-90 1v.5h1v-1h-1zm88 0v.5h1v-1h-1zm-86 1v.5h1v-1h-1zm84 0v.5h1v-1h-1zm-82 1v.5h1v-1h-1zm80 0v.5h1v-1h-1zm-78 1v.5h1v-1h-1zm76 0v.5h1v-1h-1zm-74 1v.5h1v-1h-1zm71 0v.5h1v-1h-1zm-69 1v.5h1v-1h-1zm66.3.2.7.6.7-.6.6-.7h-2.6zm-64 1 .7.6.7-.6.6-.7h-2.6zm61.7-.2v.5h1v-1h-1zm-59 1v.5h1v-1h-1zm56 0v.5h1v-1h-1zm-53 1v.5h1v-1h-1zm49.3.2.7.6.7-.6.6-.7h-2.6zm-46 1 .7.6.7-.6.6-.7h-2.6zm43 0 .7.6.7-.6.6-.7h-2.6zm-38.3.8v.5h1v-1h-1zm33.3.2.7.6.7-.6.6-.7h-2.6zm-28.3.8v.5h1v-1h-1zm23.3.2.7.6.7-.6.6-.7h-2.6z"/><path fill="#FFDBCC" stroke="#FFDBCC" stroke-width="1.1" d="m185 29-1.5 1h15.6l-.6-1-.6-1h-11.4zm-12 1.1-4.5.9-1.4.5-1.4.5.5.5.4.5 6.8-1.4 6.8-1.5.6-.5.5-.6-1.9.1-1.9.1zm30.5-.1.6 1h4.6l4.4 1.5 4.3 1.5.9-.9.9-.9-7-1.6-7.1-1.6h-2.2zM163 33v1h2v-2h-2zm-7.2 1.8-4.8 1.6v1.5l4.5-1.6 4.5-1.5.6-.9.5-.9-.3.1-.3.1zm65.1-.5 1.2 1.5 3 1.1 2.9 1V36h-.8l-3.8-1.6-3.8-1.6zm-77.4 5.6-6 2.8-6.9 4.2-6.9 4.3-6.2 4.6-6.1 4.7-4.9 4.3-4.8 4.2.5.5.5.5 4.1-3.7 4-3.8 3-2.5 3-2.5L119 56l2.2-1.5 1.2-1 1.1-1 7-4.1 7-4.1 6.3-2.9 6.2-2.8V37h-.2l-.3.1zm85.5-2v1l2 1.1 2 1.1v-2l-2-1.1-2-1.1zm5 2.7v.7l6 5.4 5.9 5.4 3.2 4.9 3.2 5h2.2l-1.5-1-1.5-1h1.6l-2.2-3.3-2.2-3.2-4.6-4.8-4.6-4.9-2.7-1.9-2.8-2zM254.8 68l1.7 3.8.7-.4.7-.4-1-2.9-1-2.9-1.4-.5-1.3-.6zM99 71.5 97.7 73l.6.6.5.6 1.2-2.1 1.1-2.1h-.9zm158.3 2-.5 1.6.4.5.5.5.6-2.1.5-2h-.9zM92.3 79 88 83.8v1.6l4.5-4.9 4.5-5V74h-.2l-.3.1zm166.3-2.1-.5.8.8 4.4.8 4.4.8-2.9.8-3-1-.3-1.1-.4.5-1.9.5-2h-1.1zM170.1 85l-6.3.9-1.2.4-1.1.4 7.6-.1 7.7-.1-.5-.8-.4-.7h14.2l-.4.7-.5.8 6.7.1 6.6.1-3-.9-3-.8-10-.4-10-.5zM80 94.2l-6 8.3-2.7 4.5-2.6 4.5 2-2.1 2.1-2.1.6-2.1.7-2.2H76v-2.2l2.3-2.8 2.2-2.7L82 93l1.5-2.2 1.8-2 1.7-2.1V86h-1zm72.5-5.7-4 1.3 3.7-.1 3.8-.2v-1.4l1.8-.4 1.7-.5h-3zm52.1-.6-.6.9 2-.5 2-.5V87h-2.9zm-44.6.6v.5h1v-1h-1zm50.5.5 2 .9h1l1 .1-1.5-1-1.5-1-1.5.1h-1.5zm-64.2 1.7.7.6.7-.6.6-.7h-2.6zm69 0 .7.6.7-.6.6-.7h-2.6zm-74 1.3-2.3.9V94l2.6-1 2.6-1 1 .6 1.1.7-.7-1.1-.7-1.2-.7.1h-.7zm78.1.5 2 1.5.5-.6.5-.5-1.4-.9-1.5-1h-1l-1 .1zm-86 3.1-1.9 1.6 2-.7 2-.7 1.2-.1h1.2l-.5-.9-.5-.8h-1.5zm91.2-.1.6 1.5h2.8v-.9l-2-1.1-2-1zm-94.6 2v.5h1v-1h-1zm-6.3 2.9-3.8 2.3-1 1-1 1h3l-.4-.7-.4-.7 4-1.8 4-1.8.5-.9.5-.8-.8.1-.8.1zm105.8-.6 2 1.7 2.4 2.5 2.3 2.5-1-2-1-2-2.2-2.3-2.1-2.2h-2.4zm31.5-.3v.5h1v-1h-1zm-2.8 7.1-1.2 5.8.5.4.5.5V110h2.2l-.6-1.7-.7-1.6 1.3-.8 1.2-.7-1-2.2-1-2.2zm-143.1-.2-1.2 1.4 2-.5 2.1-.5-.6-.9-.5-.9h-.7zm-4.6 3.6-1.9 2.1 1.6-.6 1.6-.7.6-1.4.5-1.4h-.6zm125.8 2.5v4.4l.9-.5.9-.6-.3-3.9-.2-3.9h-1.3zM67 114l-1 2 1.3-.6 1.4-.5V112h-.6zm39 .6v1.5l-.9-.5-.8-.6-1.7 1.9-1.7 1.9 1 .7 1.1.6.1-.5.2-.6.1-1 .1-1 .6.2.6.3 1.6-1.4 1.7-1.3V113h-2zm152-.1v.5h1v-1h-1zm-1.5 2.5.6 1h1l-.6-1-.6-1h-1zM64 120l-1.1 2h1.9l.5-2 .5-2h-.7zm65.5 0-2.9 1.9-1.9 2.3-1.8 2.3-2.5 5-2.6 5 2.2-2.3 2.1-2.2.5-2.3.4-2.2 1.5-1.1 1.5-1.1v-2l2.5-1.1 2.5-1.2v6.3l.5-.5.5-.5.4-4.1.4-4.2h-.3zm125.1-.3-.7 1.6 1.2 1.1 1.2 1.1-.6-1.7-.6-1.7 1.2-.4 1.1-.3-1.1-.7-1.1-.7zm-22.5 3.4-3.4 4.2-7.4 4.8-7.3 4.8-3.5 1.1-3.5 1.2v1.8l2.3-.9 2.2-.9 3.5-1.8 3.5-1.7 2.1-1.6 2.2-1.6 2.2-1.5 2.3-1.5 2.7-2.6 2.7-2.6 1.8-2.6 1.7-2.7h-.7zm-134.7.2-3.1 3.2-2.9 4-3 4-2.7 4.7-2.8 4.8 1.6-.6 1.5-.6.6-2.4.6-2.4h1.9l-.6-1-.6-1H90v-2.9l1.4-.8 1.3-.8 1.6-3.2 1.7-3.1 2.6-2.1 2.7-2.1-.5-.5-.4-.5zm-35.4.2v.5h1v-1h-1zm191 0v.5h1v-1h-1zm-3.2 6.8-2.8 5.2v1.5l-2.3 2.3-2.2 2.4-4.4 5.4-4.5 5.4 2.4-2 2.4-2 1.8-1.8 1.8-1.7v-1.6l3.1-3.2 3.1-3.2h-1.3l2-2.2 2-2.1-.4-.7-.5-.7 2-2.3 2-2.3V125h-1.5zM59.6 129l-1.8 3.5 2.2-2.1 2.2-2.2-.4-1.3-.5-1.4zm72.7-.5-.5 1.6.4.5.5.5.6-2.1.5-2h-.9zm-74.7 5.4-.5.8-1.1 2.9-1.1 2.9 1.6-1.6 1.5-1.5.5-2.2.4-2.2h-.8zm75.4-.4v.5h1v-1h-1zm1.6 1.3-.6 1.1 1.1.6 1 .7.4-.4.4-.4-.8-1.3-.8-1.3zm174.4.2-1.4.9.5.5.5.6 2-1.5 1.9-1.4-1-.1h-1zm-7.2 4.5L297 143v.9l1.5-.5 1.5-.6v-1.6l2.9-1.2 3-1.2.5-1.4.5-1.4h-.4zm-184.2-.3-.6 2.3v10.6l1-.6 1-.6-.2-7-.2-6.9h-.4zm18.9-.2.7 1.1 5 3.9 5 4h1.8v-1.8l-2.9-1.2-2.9-1.1-2.8-3-2.8-2.9h-1.7zm65.6 2.6-3.4 1.4.5.5.5.5 3.1-1.1 3.2-1.1V140h-.2l-.3.1zM54 141.5v.5h1v-1h-1zm-1.4 6.1-1.5 4.6 1.4-1.2 1.5-1.2-.6-.9-.5-.9h1.9v-5h-.6zm141.4-3.4-3.5 1-.9.9-1 .9h2.5l3.4-1.4 3.5-1.5V143l-.2.1-.3.1zm85.6 15.5L264 175.4v1.4l16-16 16.1-16-.4-.5-.5-.4zm-198-12.5-1.6 2.2v1.6h2.1l-.6-1-.6-1h2.4l-.6-.7-.7-.6 1.1-1.4 1.1-1.3h-1.1zM186 147v1h2v-2h-2zm-35 1v.8l2.3.6 2.3.5 5.5.7 5.5.6 7.4-1.1 7.5-1.2 1-1 1-1-2.5.5-2.5.5-4 .7-4 .6h-11l-4.2-1-4.3-1zm159.5 5-.6 1h2.1v-2h-.9zm-231.9 1.6-.6 1.6v1.8h2.2l-.5-1.4-.5-1.4 1.1-1.1 1.1-1.1h-2.2zm39-.1.6 1.5h.8v-3h-1.9zm114.8-.3-.7 1.1 1.1-.7 1.2-.7v-.9h-.9zm-181.7.5-.4.8-1.3 6.8-1.2 6.8.6.6.6.6.1-1.6.2-1.7.2-.8.2-.7.6-1.5.7-1.5.3-4.3.3-4.2h-.5zm255.2 1.4-2.4 2 2.6-1.5 2.6-1.6.8.7.8.8-.7-1.3-.7-1.2h-.7zm-78.4 1.9-2.9 3h2.2l1.6-2.5 1.7-2.6 1.1.7 1.1.7-.7-1.1-.7-1.2h-.5zm-108 2 1.7 3.5 3.6 3.7 3.6 3.8-2.1 2.2-2 2.3-2.7 4-2.6 4v1.8l2-2.3 2-2.3v-1.8l3.1-3.9 3.1-3.8-1.6-2.4-1.6-2.4-2.5-2.2-2.6-2.3.4-.7.4-.7-1.9-2-2-2zm-43.1 2.4-.6 3.5.5 1.3.5 1.3.1-3.2.1-3.2 1-.6 1-.6V159h-1.9zm222.3-.9-2.8 2.5h1.3l1.3-.1 1.8-2.4 1.8-2.5h-.3l-.3.1zm-76.7 1-1.2 1.5h1.7l1.4-.9 1.3-.9-1-.6-1-.6zm-3.6 2.7-.7 1.1 1.1-.7 1.2-.7v-.9h-.9zm69.7 6.2-6.3 6.4 1.1.7 1.1.6-.2-.9-.3-.9 5.9-5.7 5.9-5.7-.5-.4-.4-.4zm7.9-5.9v.5h1v-1h-1zm-81 2-1.3 1.5 1.7-.6 1.6-.6V166h-.8zm-4.6 3-1.9 1.4 1.1.1h1.2l1.2-1.5 1.2-1.5h-.8zM47 172v1.3l.7-.6.6-.7-.6-.7-.7-.6zm160 .5v.5h1v-1h-1zm-2.5 1.5-.6 1h2.1v-2h-.9zm-128.3 3-.1 2.5 1.3 3 1.2 2.9.8-1.2.7-1.2h-2l.4-2 .4-2.1-.9.6-.9.5-.4-2.7-.4-2.8zm125.8-1.5v.5h1v-1h-1zm-155.3 8.2-.6 7.8.8 6 .8 6 .2-13.8.1-13.7h-.7zm151.7-6.2-1.9 1.4 1.1.1h1.2l1.2-1.5 1.2-1.5h-.8zm63.2 1.2-.7 1.8 1.2-1.2 1.3-1.3-.6-.5-.6-.6zm-68.9 1.9-2.9 1.6.5.5.5.5 2.4-1.6 2.5-1.6.8.7.8.8-.7-1.3-.7-1.2h-.2l-.2.1zm85.3 1.7-2.5 3.1 3.3-2.4 3.2-2.4V179l-.7.1h-.8zm-33 13-14.6 14.2-8.5 6-8.6 6.1-5.9 2.9-5.9 3-.4.2-.4.3.5.5.5.6 4.9-2.6 4.9-2.6 5-3.1 5-3 6.8-5.6 6.9-5.6 13-12.8 13.1-12.8h-.9l-.9.1zm-59.6-10.8-1.9 1.4 1.1.1h1.2l1.2-1.5 1.2-1.5h-.8zm-106.4 2v.5h1v-1h-1zm102 .5-1.5.9 2.2-.2 2.2-.1-.5-.8-.5-.8h-.4zm87.3 7.6-6.8 8.6-.8 1.5-.9 1.5 2.1-1.2 2.2-1.1-.6-.9-.5-.9 1.8-1.3 1.9-1.3 1.7-3.3 1.7-3.2h1.9v-2.4l2.2-2.3 2.1-2.3H275zm-151.1-4.1-1.1 4-.5 5-.5 5 .9-3 .9-3 1.1-4.4 1.1-4.4-.4-1.6-.4-1.6zm-36.5-1.9-.6.7 2.9 4.1 2.8 4.1 3.6 3.3 3.5 3.3.3 5.7.3 5.7.5-6.2.5-6.1-4.6-3.9-4.7-3.8.4-.6.4-.6-2.4-2.6-2.4-2.6.6-.5.5-.6h-1zM94 203.5v.5h-1v-1h1zm83.5-14.5-.6 1h2.1v-2h-.9zm-5.5 2.8-2.3 1.9h3.2l-.5-.9-.5-.8h3.1v-2h-.8zm-6 3.7-1.2 1.5h2l1.2-1.5 1.2-1.5h-2zm-5.1 3.6-2.4 2 2.2-1 2.2-1.1.6-1 .6-1h-.9zm-4.8 3.3-1.2 1.4 2-.5 2.1-.5-.6-.9-.5-.9h-.7zm-6.1 5.1-3.4 3.5h1.7l2.9-3.2 2.8-3.2v-.6h-.6zm-102.9-2.2-.1.8 1.6 7.7 1.6 7.7.8 1.5.9 1.5-.5-4.4-.5-4.5-.5-.8-.5-.8-.5-2.4-.4-2.5-.9-2.3-1-2.3zm69 4.6.8 5 1 1.8 1 1.8v-2l.1-2-.9-3.9-.9-3.8-1-1-.9-.9zm141.5-1.3-.6 1.7 1.5-1.3 1.5-1.2v-.8h-1.8zm-116.4 7.8-4.3 5.2-1.9 3.2-2 3.2v1.3l2-1.8 2-1.8-.5-.7-.4-.7 1.9-2.1 2-2.1v-1.4l3.6-3.2 3.6-3.2-.8-.6-.9-.5zm110.6.3-4.4 5.8-2.3 3.2-2.2 3.3 1.5-.6 1.6-.6v-2.7l2-1.1 2.1-1.1-.6-.9-.5-.9 2.2-1.6 2.3-1.5-.2-.8-.2-.7 2-2.3 2-2.4-.4-.4-.4-.4zM95 216.5v.5h1v-1h-1zm-.9 2.2-.1 1.2 1.2 2.6 1.1 2.5H98v-2h-2.1l.6-1 .6-1h-2l-.4-1.8-.5-1.7zm24.9 1.2v1.3l3.5 5.3 3.6 5.3 1.7.7 1.7.6-2.5-2.7-2.5-2.8-1.2-1.4-1.3-1.3v-1.2l-.1-1.2-1.4-1.9-1.5-2zm-66.6 8.7.7 2.9 1 .9.9 1V229h-2.1l.6-.9.5-1-1.1-.7-1.2-.7zm45.3-2-.6.7 1.5 2.8 1.5 2.9h2l-.5.8-.5.9 2.8 3.4 2.9 3.4.6-.5.5-.6-2.9-3.1-2.9-3.1.6-.6.6-.6-1.7-.6-1.6-.6.5-.8.5-.8-1.4-1.5-1.5-1.5.6-.6.6-.6h-1zm100.8 2.4-.6 1h2.1v-2h-.9zm-6.2 1.3-4.2 1.2-.7.7-.7.8h2.6l3.8-1.2 3.9-1.1V229l-.2.1-.3.1zm-61.2 1.6-1.1 2 .9.6 1 .5.6-2.1.7-2.1-.5-.5-.5-.5zm23.2 3.3-4 5.3-1.9 3-1.8 3 2.2-2.2 2.2-2.2v-1.7l4.3-4.8 4.2-4.8 2.9 1.2 2.9 1.1 1.6-.7 1.6-.7-3-.7-3-.8-2.1-.1-2.2-.1zm84.2-.5-3.7 4.8-3.5 4-3.6 4-3.1 3.2-3 3.3h1.2l4.6-4.5 4.7-4.5h-1.6l3.9-3.5 4-3.5h-1.9l1-.8 1-.7 2.9-3.3 3-3.2h-2.3zM172 233l1.5 1h8l1.5-1 1.5-1h-14zm-116.1 4.7L58 242h.9l-.4-2-.4-2-2.1-2.2-2.2-2.3zm5.2 10.5 3.1 5.2 4.3 5.5 4.3 5.6 5.7 5.3 5.7 5.3.7-.6.6-.7-2.5-1.7-2.5-1.6L77 267l-3.5-3.5-4.4-5.3-4.3-5.2h1.6l-2.2-2-2.2-2.1-.6-2.4-.6-2.4-1.3-.5-1.4-.5zm49.4-2.2 2.9 3 6.5 4.4 6.5 4.5.9-.6 1-.6-2.9-1.5-2.9-1.5-6.7-5.3-6.7-5.4h-1.5zm34.2 4.7-1.8 3.8 2-2.5 2.1-2.5V247h-.6zm-2.1 5.9-.6 1.7.5.5.5.5.6-1.7.6-1.7-.5-.5-.5-.5zm72.4 3.5-5.5 5 2.3-1.1 2.2-1.1v-2l.8.4.7.4 3.3-3.4 3.4-3.3h-1.7zm-86-2.1v.8l2.8 1 2.7 1.1 2.2.6 2.3.6 1.7-1 1.8-1-3-.1-3-.1-3.7-1.3-3.8-1.4zm77.4 9.2-1.9 2.3 2.3-1.9 2.2-1.9v-.7h-.7zm-4.3 3.2-1.2 1.4 2-.5 2.1-.5-.6-.9-.5-.9h-.7zm-7.3 4.8-4.8 3.1.4.5.5.4 2.9-2.1 2.9-2 .8.7.8.7-.7-1.3-.7-1.2 1.3-.1 1.3-.1.8.1.8.1-.6-1-.6-1h-.2l-.2.1zm-108.4.7.7 1.1 2 1 1.9 1.1v-.9l-2.6-1.7-2.6-1.7zm7.1 4.7 2 1.9 4 1.8 4 1.9-1-1-1-.9-5-2.8-5-2.8zm88 2.1-6 3.5 2-.7 2-.6 1-.2 1-.2 1.3-1.3 1.3-1.2h3.7l.6-1.5.5-1.5-.7.1-.7.1zm-75.4 4.6 1.3 1.3 2 .1 2.1.2-2.5-1.4-2.5-1.4-.8-.1h-.8zm63.9.2-2.5 1.4 1.6.1h1.5l2-1.5 1.9-1.4h-2zm-57.7 2.2.7.6.7-.6.6-.7h-2.6zm53 0 .7.6.7-.6.6-.7h-2.6zm-49.7 1.2-.6.9 2-.5 2-.5v2l2-.5 2-.5v2l2.3-.6 2.2-.6-5-1.3-5-1.3h-1.4zm39.9.6-5 1.3 4.7-.2 4.8-.1v-1.4l1.8-.4 1.7-.5h-3zm-19.2 2.2 2.7.4 2.8-.4 2.7-.4h-11zm-8.3.8v.5h1v-1h-1zm20.3.2.7.6.7-.6.6-.7h-2.6z"/><path fill="#FFC" stroke="#FFC" stroke-width="1.1" d="m180 30-1.5 1h3.5v-2h-.5zm22 0v1h2.1l-.6-1-.6-1h-.9zm-29 1.5v.5h1v-1h-1zm36 0v.5h1v-1h-1zM165 33v1h2.1l-.6-1-.6-1h-.9zm4-.5v.5h1v-1h-1zm-8.6 1.7-.7 1.1 1.1-.7 1.2-.7V33h-.9zm57.6-.7v.5h1v-1h-1zm2 1v.5h1v-1h-1zm-62 1v.5h1v-1h-1zm-2.7 1.2.7.6.7-.6.6-.7h-2.6zm-5.3.8v.5h1v-1h-1zm2 0v.5h1v-1h-1zm74 0v.5h1v-1h-1zm2 0v.5h1v-1h-1zm-82 3v.5h1v-1h-1zm87 0v.5h1v-1h-1zm-92 2v.5h1v-1h-1zm-6 3v.5h1v-1h-1zm-3 2v.5h1v-1h-1zm-5 3v.5h1v-1h-1zm-2 1v.5h1v-1h-1zm-2 1v.5h1v-1h-1zm123 1v.5h1v-1h-1zm-125 1v.5h1v-1h-1zm-2 1v.5h1v-1h-1zm-2 2v.5h1v-1h-1zm132 0v.5h1v-1h-1zm-134.6 1.7-.7 1.1 1.1-.7 1.2-.7V58h-.9zm135.6.3v.5h1v-1h-1zm2 1v.5h1v-1h-1zm-140 1v.5h1v-1h-1zm140.8 1.8 1.2 1.4-.8.8-.7.8 1.3-.7 1.2-.7v-1.7l-1.6-.6-1.7-.6zm-143.8.2v.5h1v-1h-1zm-3.6 3.7-.7 1.1 1.1-.7 1.2-.7V66h-.9zm-2.4 2.3v.5h1v-1h-1zm152 0v.5h1v-1h-1zM100.5 71l-.6 1h2.1v-2h-.9zm156.5.5v.5h1v-1h-1zm1.2 3.5v2.5l.5-1.3.5-1.2-.5-1.3-.5-1.2zm-161.6.7-.7 1.8 1.2-1.2 1.3-1.3-.6-.5-.6-.6zM94 78.5v.5h1v-1h-1zm165 1v.5h1v-1h-1zm-167 1v.5h1v-1h-1zm-2 2v.5h1v-1h-1zm84.3 2.2.7.6.7-.6.6-.7h-2.6zm15.7-.2v.5h1v-1h-1zm70 0v.5h1v-1h-1zM86.6 86.7l-.7 1.8 1.2-1.2 1.3-1.3-.6-.5-.6-.6zm80.4-.2v.5h1v-1h-1zm35 0v.5h1v-1h-1zm-47 1v.5h1v-1h-1zm4 0v.5h1v-1h-1zm49 0v.5h1v-1h-1zm-124 2v.5h1v-1h-1zm125 0v.5h1v-1h-1zM145 91v1.3l.7-.6.6-.7-.6-.7-.7-.6zm3-.5v.5h1v-1h-1zm64 0v.5h1v-1h-1zm2 0v.5h1v-1h-1zm-131 1v.5h1v-1h-1zm59 0v.5h1v-1h-1zM260.2 93v2.5l.5-1.3.5-1.2-.5-1.3-.5-1.2zM81 93.5v.5h1v-1h-1zm57 0v.5h1v-1h-1zm2 0v.5h1v-1h-1zm82.5.5.6 1h1l-.6-1-.6-1h-1zM80 95.5v.5h1v-1h-1zm51 1v.5h1v-1h-1zm-2 1.5v1.3l.7-.6.6-.7-.6-.7-.7-.6zm99-.5v.5h1v-1h-1zm-151 2-1.3 1.5.4.5.5.4 1.2-1.9 1.2-2h-.8zm153-1v.5h1v-1h-1zm-104 2v.5h1v-1h-1zm133.6.8.6 1.8.6-.6.6-.5-1.3-1.3-1.2-1.2zM122 102.5v.5h1v-1h-1zm-48 1v.5h1v-1h-1zm45.4.7-.7 1.1 1.1-.7 1.2-.7v-.9h-.9zm115.6-.3v1l1 .6 1 .6-.6-1.5-.6-1.6h-.8zm-118 1.6v.5h1v-1h-1zm-4.4 3-.5 1.5h1.9v-3h-.8zm2.4-1v.5h1v-1h-1zm144 0v.5h1v-1h-1zM71 109v1.3l.7-.6.6-.7-.6-.7-.7-.6zm166 .5v.5h1v-1h-1zm21.2 2.5v2.5l.5-1.3.5-1.2-.5-1.3-.5-1.2zM69 111.5v.5h1v-1h-1zm38.5.5-.6 1h2.1v-2h-.9zm2.5-.5v.5h1v-1h-1zm128.1 1.1.1 1.9.5-1.3.5-1.3-.6-.6-.6-.6zm-170.1.9v.5h1v-1h-1zm37 1.5v1.3l.7-.6.6-.7-.6-.7-.7-.6zm-39.1 1.7-1.4 1.8 1.8-1.4 1.7-1.3v-.8h-.8zm190.4.4-.2 1.9h.7l.5-1.5.6-1.4-.7-.5-.8-.5zm-20.3.4-1.2 1.5h1.3l-1.2 2.2-1.1 2.3 1.1-1.1 1.2-1.1.2-1.4.3-1.4.7-1.3.8-1.2h-.9zm-133 0v.5h1v-1h-1zM65 120v1.3l.7-.6.6-.7-.6-.7-.7-.6zm34 .5-1.2 1.5h1.5l-2 2.2-2 2.3-.8 1.5-.7 1.5 2.8-3.5 2.9-3.5v-1.6l1.5-.9 1.5-1h-2.3zm33.1 1.1.1 1.9.5-1.3.5-1.3-.6-.6-.6-.6zm122.9-1.1v.5h1v-1h-1zM62.2 124l-1.2 1.9 1.3.7 1.2.7-.7-.8-.8-.8 1.2-1.4 1.1-1.3-.4-.5-.5-.4zm65.8-1.5v.5h1v-1h-1zm125.5.5.6 1h1l-.6-1-.6-1h-1zm-127.5.5v.5h1v-1h-1zm6.1 2.1.1 1.9.5-1.3.5-1.3-.6-.6-.6-.6zm98.3.6-.7 1.1 1.1-.7 1.2-.7v-.9h-.9zm-107 1-.7 1.1 1.1-.7 1.2-.7v-.9h-.9zm9.6 1.8v1.3l.7-.6.6-.7-.6-.7-.7-.6zm-11 .5v.5h1v-1h-1zm105 0v.5h1v-1h-1zm24 0v.5h1v-1h-1zm-191 1v.5h1v-1h-1zm165 0v.5h1v-1h-1zm-135 1v.5h1v-1h-1zm42.8.8 1.2 1.4-.8.8-.7.8 1.3-.7 1.2-.7v-1.7l-1.6-.6-1.7-.6zm-74.8.2v.5h1v-1h-1zm165 0v.5h1v-1h-1zM120 134v1.3l.7-.6.6-.7-.6-.7-.7-.6zm101-.5v.5h1v-1h-1zm-163 1v.5h1v-1h-1zm253 1v.5h1v-1h-1zm-223 1v.5h1v-1h-1zm129 0v.5h1v-1h-1zm89.4.7-.7 1.1 1.1-.7 1.2-.7v-.9h-.9zm2.6-.7v.5h1v-1h-1zm-223 1v.5h1v-1h-1zm49 0v.5h1v-1h-1zm111 0v.5h1v-1h-1zm-127.4 2.2-.7 1.8 1.2-1.2 1.3-1.3-.6-.5-.6-.6zm-63.1.3-.6 1H57v-2h-.9zm29.5-.5v.5h1v-1h-1zm126 0v.5h1v-1h-1zm34 0v.5h1v-1h-1zm59 0v.5h1v-1h-1zm-98 1v.5h1v-1h-1zm2 0v.5h1v-1h-1zm94 0v.5h1v-1h-1zm-59.1 2.2-1.4 1.8 1.8-1.4 1.7-1.3v-.8h-.8zm57.1-1.2v.5h1v-1h-1zm-245 2v.5h1v-1h-1zm142.4.7-.7 1.1 1.1-.7 1.2-.7v-.9h-.9zm3.6-.7v.5h1v-1h-1zm97 0v.5h1v-1h-1zm-156 1v.5h1v-1h-1zm154 0v.5h1v-1h-1zm-242 1v.5h1v-1h-1zm28.3 1v1.4l.9-.5.8-.5-.5-1-.6-.9h-.6zm105.7.5v1.3l.7-.6.6-.7-.6-.7-.7-.6zm4-.5v.5h1v-1h-1zm47.4.7-.7 1.1 1.1-.7 1.2-.7v-.9h-.9zm-89.4.3v.5h1v-1h-1zm32.4.7-.7 1.1 1.1-.7 1.2-.7v-.9h-.9zm2.6-.7v.5h1v-1h-1zm108 0v.5h1v-1h-1zm-240 1v.5h1v-1h-1zm28 1v.5h1v-1h-1zm78.4.7-.7 1.1 1.1-.7 1.2-.7v-.9h-.9zm11.3-.1 1.3 1.3.5-.6.6-.6-1.8-.6-1.8-.7zm7.6-.4.7.6.7-.6.6-.7h-2.6zm58.7-.2v.5h1v-1h-1zm-184 1v.5h1v-1h-1zm236.4.7-.7 1.1 1.1-.7 1.2-.7v-.9h-.9zM79 152v1.3l.7-.6.6-.7-.6-.7-.7-.6zm38.5 0-.6 1h2.1v-2h-.9zM51 153v1.3l.7-.6.6-.7-.6-.7-.7-.6zm181.3.2-1 1.3-.7 1.5-.7 1.5 1.6-2 1.6-2 1 .2.9.3v-2h-1.8zM119 154.5v.5h1v-1h-1zm189.4.7-.7 1.1 1.1-.7 1.2-.7v-.9h-.9zm-257.3 1.4.1 1.9.5-1.3.5-1.3-.6-.6-.6-.6zm254.3.6-.7 1.1 1.1-.7 1.2-.7v-.9h-.9zm-228.1 1.5.7.6.7-.6.6-.7h-2.6zm42.7.3v1.3l.7-.6.6-.7-.6-.7-.7-.6zm108-.5v.5h1v-1h-1zm72.6 2.3-1.9 2.7 2.6-2.4 2.7-2.4v-.7h-.7l-.8.1zM51 159.5v.5h1v-1h-1zm227.9 2.2-1.4 1.8 1.8-1.4 1.7-1.3v-.8h-.8zM78 161.5v.5h1v-1h-1zm43.6.8.6 1.8.6-.6.6-.5-1.3-1.3-1.2-1.2zm175.4.2v.5h1v-1h-1zm-78.2 2.7L217 167h.8l.7-.1 1.8-1.3 1.8-1.4-.8-.4-.8-.5zM50 164.5v.5h1v-1h-1zm27 .5v1.3l.7-.6.6-.7-.6-.7-.7-.6zm218 .1v1l1-.6 1-.6v-.9h-2zm-20.6 1.1-.7 1.1 1.1-.7 1.2-.7v-.9h-.9zM49 168v1.3l.7-.6.6-.7-.6-.7-.7-.6zm243.4.2-.7 1.1 1.1-.7 1.2-.7v-.9h-.9zm-216.4.3v.5h1v-1h-1zm51.9.7 1.3 1.8-1.3 1.7-1.3 1.8 1.9-1.8 1.9-1.7-1.9-1.8-1.9-1.7zm87.1-.7v.5h1v-1h-1zm56.4.7-.7 1.1 1.1-.7 1.2-.7v-.9h-.9zm-59.8 1 .5.8 1-.5.9-.6v-.6h-2.9zm-163.6.3v.5h1v-1h-1zm221 1v.5h1v-1h-1zm20 0v.5h1v-1h-1zm-242 2v.5h1v-1h-1zm159 0v.5h1v-1h-1zm-130 1v.5h1v-1h-1zm127 0v.5h1v-1h-1zm62.4.7-.7 1.1 1.1-.7 1.2-.7v-.9h-.9zm20.6-.7v.5h1v-1h-1zM77 177v1.3l.7-.6.6-.7-.6-.7-.7-.6zm46.9.7-1.4 1.8 1.8-1.4 1.7-1.3v-.8h-.8zm76.6-.7-.6 1h2.1v-2h-.9zm83.5-.5v.5h1v-1h-1zm-235.7 4v4l.4-2.3.4-2.2-.4-1.8-.5-1.7zm213.5-1.3L260 181h1.8l1.2-1.5 1.3-1.5-.4-.4-.4-.3zm20.2-.7v.5h1v-1h-1zm-88 1v.5h1v-1h-1zm-116 1v.5h1v-1h-1zm114 0v.5h1v-1h-1zm87 0v.5h1v-1h-1zm-201 2v.5h1v-1h-1zm109.9 1.2-1.4 1.8 1.8-1.4 1.7-1.3v-.8h-.8zm88.6.8-3 2.5h1.8l-1.8 2-1.8 2 .4.4.4.4 3.8-4.9 3.8-4.9h-.3l-.3.1zm-.5 2v.5h-1v-1h1zm-156.9-1.2-1.3 2.2 1.8-1.7 1.8-1.8-.5-.4-.5-.5zm-40.7-.1-.7 1.1 1.1-.7 1.2-.7v-.9h-.9zm1.2 1.7-.6.9 1.8 1.3 1.7 1.4-1.2-1.6-1.3-1.6.7-.6.6-.7h-1.2zm101.4-.4v.5h1v-1h-1zm74 0v.5h1v-1h-1zm-76 1.5v1.3l.7-.6.6-.7-.6-.7-.7-.6zm-60 .5v.5h1v-1h-1zm56.4 1.7-.7 1.1 1.1-.7 1.2-.7v-.9h-.9zm76 0-.7 1.1 1.1-.7 1.2-.7v-.9h-.9zM81 191.5v.5h1v-1h-1zm37 1v.5h1v-1h-1zm53.4.7-.7 1.1 1.1-.7 1.2-.7v-.9h-.9zm-2.4.8v1.3l.7-.6.6-.7-.6-.7-.7-.6zm79-.5v.5h1v-1h-1zm21.4.7-.7 1.1 1.1-.7 1.2-.7v-.9h-.9zm-186.4.3v.5h1v-1h-1zM48.2 198v3.5l.5-1.8.4-1.7-.4-1.8-.5-1.7zm219.3-2 .6 1h1l-.6-1-.6-1h-1zm-23.1 1.2-.7 1.1 1.1-.7 1.2-.7v-.9h-.9zm-127.4.3v.5h1v-1h-1zm-1 2v.5h1v-1h-1zm44 1v.5h1v-1h-1zm80.4.7-.7 1.1 1.1-.7 1.2-.7v-.9h-.9zm-150.4.3v.5h1v-1h-1zm68 0v.5h1v-1h-1zm105.4.7-.7 1.1 1.1-.7 1.2-.7v-.9h-.9zM47 203.5v.5h1v-1h-1zm47 4.3.5 4.7.3-3.9.3-3.9-.8-.8-.8-.8zm62-4.3v.5h1v-1h-1zm-40.5 1.5.6 1h1l-.6-1-.6-1h-1zm121.5-.5v.5h1v-1h-1zm23.4.3.6 1-1.2.5-1.3.5 1.2.1 1.2.1.6-.9.5-1-1.1-.7-1.2-.7zm-107.4.7v.5h1v-1h-1zm82 1v.5h1v-1h-1zm-118 1v.5h1v-1h-1zm33.4.7-.7 1.1 1.1-.7 1.2-.7v-.9h-.9zm107.2 1 .5.8 1-.5.9-.6v-.6h-2.9zM49 210.5v.5h1v-1h-1zm180.4.7-.7 1.1 1.1-.7 1.2-.7v-.9h-.9zm27.1-.2.6 1h1l-.6-1-.6-1h-1zm-110.5.5v.5h1v-1h-1zm-97 1v.5h1v-1h-1zm69 0v.5h1v-1h-1zm26 0v.5h1v-1h-1zm111 1v.5h1v-1h-1zm-205 1v.5h1v-1h-1zm94 0v.5h1v-1h-1zm109 0v.5h1v-1h-1zm-160 1v.5h1v-1h-1zm26 1.5v1.3l.7-.6.6-.7-.6-.7-.7-.6zm133.4.2-.7 1.1 1.1-.7 1.2-.7v-.9h-.9zM51 218.5v.5h1v-1h-1zm44 .5v1.3l.7-.6.6-.7-.6-.7-.7-.6zm45 0v1.3l.7-.6.6-.7-.6-.7-.7-.6zm111 .5v.5h1v-1h-1zM51 221v1.3l.7-.6.6-.7-.6-.7-.7-.6zm69.5 0 .6 1h1l-.6-1-.6-1h-1zm96.5-.5v.5h1v-1h-1zm-79 1v.5h1v-1h-1zm77 0v.5h1v-1h-1zm-119 1v.5h1v-1h-1zm116.4.7-.7 1.1 1.1-.7 1.2-.7v-.9h-.9zm-90.4.8v1.3l.7-.6.6-.7-.6-.7-.7-.6zm-71 1v1.3l.7-.6.6-.7-.6-.7-.7-.6zm85-.5v.5h1v-1h-1zm-2 1v.5h1v-1h-1zm75 0v.5h1v-1h-1zm37 .5v1.3l.7-.6.6-.7-.6-.7-.7-.6zm-193 .5v.5h1v-1h-1zm44.3 1v1.4l.9-.5.8-.5-.5-1-.6-.9h-.6zm25.7-1v.5h1v-1h-1zm83 0v.5h1v-1h-1zm38 0v.5h1v-1h-1zm-191 2v.5h1v-1h-1zm74 2 2.3 2.5h1l-2.3-2.5-2.3-2.5h-1zm73-2v.5h1v-1h-1zm3 0v.5h1v-1h-1zm40 .5-1.5 1h2.4l.6-1 .6-1h-.6zm-46 .5v.5h1v-1h-1zm-64 1v.5h1v-1h-1zm-33 1v.5h1v-1h-1zm56.4 2.7-2.9 3.3 3.5-3 3.5-3 .4-.3.4-.2h-1.9zm37.6-2.7v.5h1v-1h-1zm-139.6 1.7-.7 1.1 1.1-.7 1.2-.7v-.9h-.9zm108.6-.7v.5h1v-1h-1zm4 0v.5h1v-1h-1zm17 0v.5h1v-1h-1zm-82.5 1.5.6 1h1l-.6-1-.6-1h-1zm70.5-.5v.5h1v-1h-1zm10 0v.5h1v-1h-1zm57.4 1.7-.7 1.1 1.1-.7 1.2-.7v-.9h-.9zM102 236.5v.5h1v-1h-1zm135 1v.5h1v-1h-1zm-85 2v.5h1v-1h-1zm84 0v.5h1v-1h-1zm-178 1v.5h1v-1h-1zm48.2 1.1 1.8 1.8.6-.6.6-.6-2.4-1.2-2.3-1.2zM58.5 243l.6 1h1l-.6-1-.6-1h-1zm173.4.7-1.4 1.8 1.8-1.4 1.7-1.3v-.8h-.8zm-82.9.3v1.3l.7-.6.6-.7-.6-.7-.7-.6zm-88 1.5v1l1 1.5 1 1.5v-2l-1-1.5-1-1.5zm168.5.5.6 1h1l-.6-1-.6-1h-1zm-82.4 1.6.1 1.9.5-1.3.5-1.3-.6-.6-.6-.6zm78.2 2.9v1.4l.9-.5.8-.5-.5-1-.6-.9h-.6zm-162.3 0v.5h1v-1h-1zm82.5.6-.7 1 .5.5.5.5.5-1.6.6-1.5h-.8zM65 253.5v.5h1v-1h-1zm54 0v.5h1v-1h-1zm103 .5-1.5 1h2.4l.6-1 .6-1h-.6zm-101 .5v.5h1v-1h-1zm22 0v.5h1v-1h-1zM67.5 256l.6 1h1l-.6-1-.6-1h-1zm76.5.5v.5h1v-1h-1zm74.5.5.6 1h1l-.6-1-.6-1h-1zm-91.2.7.7.6.7-.6.6-.7h-2.6zM70.5 260l1.8 2h1l-1.8-2-1.8-2h-1zm71.9-.8-.7 1.1 1.1-.7 1.2-.7v-.9h-.9zm73.6-.7v.5h1v-1h-1zm0 2v.5h1v-1h-1zm-80 1v.5h1v-1h-1zm4 0v.5h1v-1h-1zm74 0v.5h1v-1h-1zM73.5 264l.6 1h1l-.6-1-.6-1h-1zm137.5.5v.5h1v-1h-1zm-3.6 2.7-1.9 2.3 2.3-1.9 2.2-1.9v-.7h-.7zm-130.4.2v.4l1.8 1.3 1.7 1.4-1.4-1.8-1.3-1.7H77zm127 1.6v1.3l.7-.6.6-.7-.6-.7-.7-.6zm-2 2.5v.5h1v-1h-1zm-2.6 1.7-.7 1.1 1.1-.7 1.2-.7v-.9h-.9zM85 274.5v.5h1v-1h-1zm111.4.7-.7 1.1 1.1-.7 1.2-.7v-.9h-.9zm-108.9.8.6 1h1l-.6-1-.6-1h-1zm106.5-.5v.5h1v-1h-1zm-1.5 1.5.6 1h1l-.6-1-.6-1h-1zm-101.9 1.3.6 1.8.6-.6.6-.5-1.3-1.3-1.2-1.2zm2.4 1.2v.5h1v-1h-1zm96 0v.5h1v-1h-1zm-93 2v.5h1v-1h-1zm4 2v.5h1v-1h-1zm79 0v.5h1v-1h-1zm-76.5 1.5.6 1h1l-.6-1-.6-1h-1zm75.5.5v.5h1v-1h-1zm-4 1v.5h1v-1h-1zm-65 1v.5h1v-1h-1zm2 1v.5h1v-1h-1zm56 0v.5h1v-1h-1zm-53 1v.5h1v-1h-1zm49.3.2.7.6.7-.6.6-.7h-2.6zm-4.3.8v.5h1v-1h-1zm-9 2v.5h1v-1h-1zm-17 1v.5h1v-1h-1zm11 0v.5h1v-1h-1zm-15 1v.5h1v-1h-1z"/><g fill="#FFF" stroke="#FFF" stroke-width="1.1"><path d="M182 30.2v.8h-6.6l-5.2 1.5-5.2 1.6-1.3-.3-1.2-.2-3.2 1.7-3.2 1.7h-2.5l-4.5 2.1-4.6 2.1-5 2.5-5 2.6-2 1.1-2 1.2-4 2.5-4 2.6-7.5 6-7.5 6-8.8 8.8-8.7 8.8-5.7 7.6-5.7 7.6-2.8 3.7-2.8 3.7v1.8l-2 2.3-2 2.3v2.5l-1.5 1.2-1.5 1.2v3l-2.2 3.1-2.3 3.2h.8l-.7 2.2-.7 2.3H59v3.9l-1.2 2.8-1.3 2.8-1.5 1.2-1.5 1.2 1.1.1h1.2l-1 4-1 4h-1.5l-.6 6.7-.7 6.8-.9.3-1 .3.5 1.3.5 1.2-1.6 3.8-1.6 3.8.9 1.1.9 1.2-.2 12.7-.2 12.8-.5.6-.6.5 2 5.7 2 5.7.5 5.3.6 5.2h1.5l.8 3.3.7 3.2.2 1.6.2 1.7 1.6 1.7 1.7 1.6v3.8l1.1.7 1.1.6 1.4 3.2 1.4 3.1 1.3 1.9 1.2 1.8 3 3.6 3 3.6 4.2 4.6 4.3 4.7-.8.8-.7.8 1.1-.6 1.1-.6 2.2 1.5 2.1 1.5-.5.9-.5.9 1.1.7 1.2.7-.7-1.1-.7-1.2H87l4 2.6 4 2.6-.5.8-.5.8 1.8-.2 1.7-.1-.2 1.2-.3 1.2 1.4-.5 1.4-.6 2.1 1.2 2.2 1.1-.6.8-.5.9 1.6.6 1.6.6.9-.6.9-.5 2.1.6 2.2.7-1.3.8-1.3.8 3.8 1.1 3.7 1 3.2-.5 3.1-.4-2 1-2 1 4-.5 4-.5-2 .8-1.9.9 4.8.6 4.9.7 6.6-.1h6.6l4.5-.8 4.5-.8-3-.3-3-.2 5.5-1.3 5.5-1.4h3l-2 1-2 .9 3.5-.6 3.5-.7 2-.8 2-.8-2-.1-2-.1 3.4-1.4 3.3-1.5h2.3l-1.5 1-1.5 1 1-.1h1l2-.9 2-.9H177l-1.4-.1 2.2-1.6 2.2-1.5 1.8.5 1.7.6 1.5-1 1.5-1h-2.9l2.2-1.6 2.3-1.6 1.5.6 1.5.6-.6-1-.6-.9 4.8-3.1 4.8-3 1.3.5 1.3.5-.6-.9-.5-.9 3.9-3.1 3.9-3.1h1.3l-.7 1.2-.7 1.1 1.2-.7 1.1-.7-.4-.8-.5-.8 3.4-3.3 3.3-3.2 1.3.7 1.2.8-.6-1-.6-.9 8-8.5 8-8.4 6.1-8.2 6-8.3 1.1.7 1 .6-.7-1.2-.8-1.2 1.2-1.4 1.2-1.5 1.1.7 1 .6-.7-1.1-.7-1.2 3.4-4.5 3.4-4.4.8.7.8.7-.7-1.2-.7-1.3 10.3-13.1 10.3-13.1 1.6-2.1 1.6-2 1.2.7 1.1.7-.7-1.7-.6-1.7 1.2.7 1.1.7-.2-1.3-.3-1.3 1.3.3 1.3.2-.5-.9-.6-.9 8.6-8.1 8.7-8.1h1.8l-.7 1.2-.7 1.1 1.2-.7 1.1-.7-.5-.9-.6-.9 2.5-1.6 2.5-1.7 1.2.8 1.2.7-.7-1.1-.6-1.1 1-.6 1-.6v-16l-2.1.6-2.1.7-6.1 4.2-6.1 4.1-15.6 16-15.5 15.9L249 193l-15.5 15.6-8 6-8 5.9-4 2.5-4 2.5-3.5 1.7-3.5 1.6-6.2 2.1-6.1 2-2.9.1h-2.8l-5.3.6-5.2.6-1.8-.7-1.7-.8-5.7-.2-5.7-.2-3.9 4.1-3.9 4.2-.7 2.2-.7 2.2h-1.6l-.6 2.9-.6 2.9-1.6 1.6-1.7 1.7.5 1.4.6 1.4-2.1 2.6-2.1 2.7-3.3-.5-3.2-.5-7.4-3.6-7.4-3.7-6.6-5.9-6.6-6-4.7-7.1-4.6-7 .4-1.2.4-1.2-1.4-1.4-1.4-1.4.5-1.4.6-1.4-1 .6-1 .6V218h1.7l-.6-3.3-.5-3.2-.7 2.5-.7 2.5-.1-6-.1-6.1-4-3.9-3.9-3.8.6-1 .6-1-1.1.7-1 .6-2.2-3.5-2.1-3.5.7-1.1.7-1.2-1.3.8-1.3.8.6-1.7.7-1.7-.9.5-.9.6-.6-2.4-.6-2.4.6-1.9.6-1.8-1.1 1.5-1.1 1.5v-7l1 1.5 1 1.5-.1-5.5v-5.5l-.9 2-.9 2v-4l-.1-4 1.1 1.5 1 1.5-.6-2.2-.6-2.1.7-2.6.6-2.6.8.5.9.5.7-1.1.7-1.2-1.1.7-1.2.7v-4.6l1.1 1.5 1.1 1.5-.6-1.8-.5-1.7 1.1-2.5 1.1-2.5h2.9l-.6-1.6-.6-1.7 2.5-4.4 2.6-4.3.9.5.9.5.7-1.1.7-1.2-1.1.7-1.2.7v-1.3l3.7-4.6 3.7-4.7 3-3.2 2.9-3.2 1 .6 1 .6-.7-1.1-.6-1.1 6.2-5 6.3-5.1 1.3.5 1.3.5-.6-.9-.5-1 2.2-1.5 2.2-1.6h1.7l-.6 1-.6 1 1.7-.7 1.8-.7-1.3-.4-1.3-.4 2.9-1.9 2.8-1.9h1.6l-.6 1-.6 1 1.6-.7 1.7-.6-1.1-.7-1.2-.7 2.6-1.1 2.6-1.2h1l-.5.9-.6.9 2.1-.5 2.1-.6-1.2-.7-1.2-.7 4.1-1.7L146 90l1.8.1h1.7l-2 .9-2 .9h3l2-.9 2-.9-2-.1-2-.2 3.5-1.3 3.5-1.3h5l-2.5.9-2.5.9 3.4-.5 3.4-.5 2.6-.1 2.6-.1-3-.7-3-.7 7.8-1.2 7.8-1.2 6.2.1h6.2l4.5.9 4.5.8-10-.4-10-.4-5.5.8-5.5.8 18-.1 18-.2-2.5.7-2.5.6 4.6.7 4.5.6 2.5-.5 2.4-.6L211 89l-1.5 1.1 2.4-.6 2.4-.7-.7 1-.6 1 2.2-.5 2.3-.5-1.3 1-1.4.9 2.1.6 2.1.5-.6-.9-.5-.9h1.2l2 1.1 2 1-.6.9-.6 1 1.7-.7 1.7-.6-.6 1-.7 1.1 1.8-.2 1.7-.1-.3 1.3-.2 1.3.9-.6 1-.6 4.1 4.2 4.1 4.2-1.3.8-1.2.8 1.6.6 1.6.6.6 2.4.6 2.4-1.2 2.8-1.1 2.8-.3 1.2-.2 1.3-3.8 4-3.8 4-5.8 4-5.9 4h-2.2l-1.6 1.3-1.6 1.3-5.5 2.1-5.5 2.1-6.4 2.2-6.3 2.1-1.7-.2-1.6-.2-3 1.3-3 1.3-11.5.1h-11.5l-3-1.4-3-1.3-.8.2-.8.1-2-1.1-2.1-1.1-3.9-3.5-3.9-3.5.6-.9.5-.9-1.3.2-1.3.3.1-1.7.2-1.8-1.1.7-1 .6.7-2.9.7-2.9-1.1 1.5-1.2 1.5.5-2.8.4-2.7h-1.6l-.3-3.2-.3-3.2-3.3 3.4-3.3 3.3-1.5 3.8-1.6 3.7-1.5.6-1.5.6 1.2 1.6 1.3 1.5-.9.9-.9.9.5 7.1.5 7.2-.8.5-.9.5 2.1 1.9 2.1 2v1.9l4.1 4.5 4.1 4.4-3.5 4.3-3.5 4.3-1.8 3.5-1.8 3.5-.2 2-.3 2-1.2 4.5-1.2 4.5v6l1.6 6 1.6 6-.9.3-.8.3 2.4 2.4 2.4 2.4v2.7l3.5 3.4 3.4 3.3-.5.8-.4.8 1 .6 1 .6-.2-.8-.2-.8.8-2.3.7-2.2.9.5.9.5.7-1.1.7-1.2-1.1.7-1.2.7v-1.6l3.6-5.2 3.6-5.3.9.6.9.5-.2-.8-.2-.8 1.8-2.8 1.9-2.8 1.4.5 1.4.6-.5-.9-.5-.8 3.4-3.3 3.5-3.4v2.5l1-.6 1-.6-.5-.9-.5-.8 1.5-1.2 1.4-1.2 1.3.8 1.3.7-.7-.8-.8-.8 1.1-1.4 1.1-1.3h1.9l-.6 1.1-.7 1 2-1.2 2.1-1.3-.5-.8-.5-.7 4.1-2.6 4.2-2.6 1.5-.6 1.6-.6-.7 1.1-.7 1.2 1.7-.7 1.8-.7-1.3-.4-1.3-.4 2.9-1.9 2.8-1.9h1.6l-.6 1-.6 1 1.5-.6 1.6-.6-.5-.9-.6-.8 2-1 2-1.1h1.2l-.6 1-.6 1 1.7-.7 1.8-.7-1.3-.4-1.3-.4 2.9-1.9 2.8-1.9h1.6l-.6 1-.6 1 1.5-.6 1.6-.6-.5-.9-.6-.8 2.1-1.1 2-1.1.8.5.8.5 1.4-1 1.5-.9h-3l1.5-1 1.5-1h1.6l-.7 1.1-.6 1.1 2.1-1.2 2.2-1.1-.6-.8-.5-.9 1.5-1.2 1.5-1.2 1.5.6 1.6.6-.6-.9-.5-1 4.6-3.3 4.7-3.3 1.4.3 1.5.3-.6-.9-.6-.9 1.9-1.7 1.8-1.6.8.7.8.8-.6-1.1-.6-1.1 2.9-2.8 3-2.9v2.7l.6-.5.6-.6.1-1.4.2-1.3 5.1-6.7 5.1-6.7.8.7.8.7-.7-1.2-.7-1.3 1.6-2.2 1.5-2.3.6.3.6.4.6-.8.7-.7-1.2.7-1.3.7v-1l1.2-2.6 1.1-2.5 1.6-.1 1.6-.1-1.2-.5-1.3-.5v-1.9l1.2.7 1.1.7-.6-1-.7-1.1 1.3-3.1 1.3-3.1.9.7.8.8-.6-2.4-.6-2.4.6-2.8.5-2.9.7.4.7.5-.4-3.6-.5-3.6 1.1.7 1 .6.6-1.6.6-1.6V87.5l-1-1.5-1-1.5-.1 1-.1 1-1.3-6.4-1.4-6.4.5-.8.5-.9h-1.7l-1.8-4-1.7-4 .7-1.2.7-1.3-.8.7-.8.8-3.9-6-3.9-6-5.6-4.9-5.5-4.9-6.9-3.3-6.9-3.3v-1.7l-1 .6-1 .6-5.2-1.6-5.2-1.5H202v-1.5h-20zm26.3 57.5-1.3.5-1.2-.5-1.3-.5h5zm52.4 6.5-.5 1.3v-5l.5 1.2.5 1.3zM84 143.5v.5h-1v-1h1zm152 7v.5h-1v-1h1zm-27.3 22.2-.7.6-.7-.6-.6-.7h2.6zm-5.7 2.8v.5h-1v-1h1zm-39 22v.5h-1v-1h1zm19.7 85.2-.7.6-.7-.6-.6-.7h2.6zm-77 4-.7.6-.7-.6-.6-.7h2.6zm8 2.9-.6.6-1.3-.5-1.3-.5 1.9-.1 1.9-.1zm51.6.1-1.3.5-1.2-.5-1.3-.5h5zm-47.6.9-.6.6-1.3-.5-1.3-.5 1.9-.1 1.9-.1zm23.6 3.1-3.3.4-3.2-.4-3.3-.4h13z"/><path d="m153.3 89.7.7.6.7-.6.6-.7h-2.6zM142 93l-1.5 1h2l1.5-1 1.5-1h-2zm78 .5v.5h1v-1h-1zm-86 3v.5h1v-1h-1zm-6 3v.5h1v-1h-1zm-7 4v.5h1v-1h-1zm-7 5v.5h1v-1h-1zm-5.6 4.7-.7 1.1 1.1-.7 1.2-.7v-.9h-.9zm-7.4 7.3v.5h1v-1h-1zm-14 18v.5h1v-1h-1zm145.4 16.7-.7 1.1 1.1-.7 1.2-.7v-.9h-.9zm74.6 1.3v.5h1v-1h-1zm-10 8v.5h1v-1h-1zm-77 1v.5h1v-1h-1zm-3 2v.5h1v-1h-1zm-6 4v.5h1v-1h-1zm-12 7v.5h1v-1h-1zm-6.6 3.7-.7 1.1 1.1-.7 1.2-.7v-.9h-.9zm-6.4 3.3v.5h1v-1h-1zm-6.6 3.7-.7 1.1 1.1-.7 1.2-.7v-.9h-.9zm-6.4 3.3v.5h1v-1h-1zm-3 2v.5h1v-1h-1zm-2 1v.5h1v-1h-1zm97 5v.5h1v-1h-1zm-11 15v.5h1v-1h-1zm-117 8v.5h1v-1h-1zm92 24v.5h1v-1h-1zm-24 22v.5h1v-1h-1zm-7 5v.5h1v-1h-1zm-3 2v.5h1v-1h-1zm-106 2v.5h1v-1h-1zm103 0v.5h1v-1h-1zm-100 2v.5h1v-1h-1zm96 0v.5h1v-1h-1zm-89 4v.5h1v-1h-1zm80.4.7-.7 1.1 1.1-.7 1.2-.7v-.9h-.9zm-78.4.3v.5h1v-1h-1zm7 3v.5h1v-1h-1zm63 0v.5h1v-1h-1zm-14.2 4.2 1.3.5.6-.6.6-.6-1.9.1-1.9.1z"/></g><path fill="#FFDBFF" stroke="#FFDBFF" stroke-width="1.1" d="M97 122.5v.5h1v-1h-1zm37 14v.5h1v-1h-1zm74 36v.5h1v-1h-1zm41 49v.5h1v-1h-1zm-117 8v.5h1v-1h-1z"/><path fill="#DBB666" fill-opacity=".35" stroke="#DBB666" stroke-opacity=".35" stroke-width="1.1" d="M312 132.5v.5h1v-1h-1z"/><path fill="#DBDBCC" fill-opacity=".35" stroke="#DBDBCC" stroke-opacity=".35" stroke-width="1.1" d="M312 133.5v.5h1v-1h-1z"/><path fill="#FFDBCC" fill-opacity=".35" stroke="#FFDBCC" stroke-opacity=".35" stroke-width="1.1" d="M312 134.5v.5h1v-1h-1zm0 18v.5h1v-1h-1z"/><path fill="#FFF" fill-opacity=".35" stroke="#FFF" stroke-opacity=".35" stroke-width="1.1" d="m312.4 143.5-.1 9 .4-4.2.4-4.2-.4-4.8-.3-4.8zm-.4 10v.5h1v-1h-1z"/><path fill="#DBDB99" fill-opacity=".35" stroke="#DBDB99" stroke-opacity=".35" stroke-width="1.1" d="M312 154.5v.5h1v-1h-1z"/></svg>